<svg xmlns="http://www.w3.org/2000/svg" viewBox="0 0 41 41" shape-rendering="crispEdges"><path fill="#ffffff" d="M0 0h41v41H0z"/><path stroke="#123a31" d="M2 2.5h7m2 0h1m10 0h2m2 0h3m3 0h7M2 3.5h1m5 0h1m2 0h3m2 0h1m1 0h2m2 0h1m1 0h2m1 0h1m4 0h1m5 0h1M2 4.5h1m1 0h3m1 0h1m1 0h1m1 0h1m1 0h2m4 0h5m1 0h2m1 0h1m2 0h1m1 0h3m1 0h1M2 5.5h1m1 0h3m1 0h1m1 0h2m1 0h1m2 0h2m9 0h1m2 0h1m1 0h1m1 0h3m1 0h1M2 6.5h1m1 0h3m1 0h1m4 0h1m2 0h2m1 0h1m1 0h2m1 0h5m3 0h1m1 0h3m1 0h1M2 7.5h1m5 0h1m2 0h1m2 0h2m2 0h2m3 0h1m1 0h1m1 0h2m3 0h1m5 0h1M2 8.5h7m1 0h1m1 0h1m1 0h1m1 0h1m1 0h1m1 0h1m1 0h1m1 0h1m1 0h1m1 0h1m1 0h1m1 0h7M11 9.5h4m1 0h1m1 0h1m5 0h1m3 0h3M5 10.5h2m1 0h2m6 0h1m1 0h1m2 0h3m1 0h4m6 0h2M3 11.5h4m2 0h2m1 0h1m2 0h1m3 0h1m1 0h4m1 0h3m1 0h1m1 0h2m2 0h1M3 12.5h4m1 0h2m1 0h4m2 0h2m5 0h4m1 0h4m5 0h1M3 13.5h2m2 0h1m3 0h4m1 0h3m2 0h3m1 0h2m1 0h1m1 0h8M3 14.5h1m3 0h2m6 0h1m2 0h1m1 0h2m1 0h3m3 0h1m2 0h2m1 0h1M3 15.5h1m1 0h2m2 0h2m1 0h2m1 0h1m1 0h6m3 0h1m1 0h4m2 0h1m1 0h1M3 16.5h1m1 0h1m2 0h3m1 0h3m1 0h2m3 0h3m1 0h1m1 0h1m1 0h1m1 0h1m2 0h5M6 17.5h2m2 0h2m1 0h1m1 0h1m1 0h3m1 0h1m1 0h3m2 0h3m2 0h1m1 0h4M3 18.5h6m2 0h2m1 0h2m1 0h7m1 0h1m1 0h1m1 0h2m1 0h1m3 0h3M5 19.5h3m4 0h1m2 0h1m1 0h2m1 0h1m3 0h1m1 0h4m1 0h1m3 0h1m1 0h1M3 20.5h3m2 0h2m4 0h5m1 0h3m1 0h1m1 0h1m2 0h1m1 0h1m3 0h2m1 0h1M3 21.5h5m1 0h1m1 0h1m2 0h1m2 0h1m1 0h3m2 0h2m1 0h1m4 0h4m2 0h1M3 22.5h1m4 0h1m1 0h1m4 0h1m1 0h2m1 0h1m4 0h2m1 0h1m1 0h3m1 0h1m2 0h2M2 23.5h3m6 0h1m2 0h1m2 0h2m1 0h1m2 0h2m1 0h1m2 0h2m2 0h2M2 24.5h1m2 0h5m5 0h1m3 0h1m1 0h1m1 0h1m1 0h1m2 0h2m1 0h2m1 0h1m3 0h1M2 25.5h2m1 0h2m2 0h2m1 0h3m3 0h4m6 0h3m1 0h2m1 0h2M2 26.5h3m1 0h3m1 0h2m1 0h1m1 0h3m1 0h1m1 0h2m1 0h2m1 0h2m1 0h6m1 0h2M2 27.5h1m1 0h4m1 0h2m2 0h3m3 0h5m2 0h1m3 0h7M2 28.5h2m2 0h7m1 0h1m1 0h1m1 0h1m1 0h3m4 0h2m1 0h1m1 0h1m1 0h3m1 0h1M2 29.5h1m4 0h1m4 0h1m1 0h2m4 0h2m4 0h1m2 0h1m1 0h1m1 0h1m2 0h1M2 30.5h1m1 0h1m1 0h3m1 0h3m3 0h1m7 0h4m2 0h9M10 31.5h13m1 0h1m3 0h3m3 0h4M2 32.5h7m1 0h1m3 0h2m4 0h1m1 0h2m1 0h1m1 0h1m2 0h1m1 0h1m1 0h3m1 0h1M2 33.5h1m5 0h1m7 0h1m1 0h1m1 0h1m1 0h1m1 0h1m1 0h2m1 0h2m3 0h2m1 0h2M2 34.5h1m1 0h3m1 0h1m1 0h1m3 0h3m5 0h1m2 0h2m1 0h7M2 35.5h1m1 0h3m1 0h1m1 0h1m1 0h1m1 0h2m4 0h1m1 0h2m4 0h3m1 0h1m3 0h1M2 36.5h1m1 0h3m1 0h1m2 0h2m4 0h2m1 0h1m1 0h1m1 0h1m1 0h5m3 0h2m1 0h2M2 37.5h1m5 0h1m2 0h3m1 0h1m1 0h2m1 0h1m1 0h2m8 0h7M2 38.5h7m3 0h1m1 0h1m3 0h6m2 0h1m3 0h1m7 0h1"/></svg>
