<svg xmlns="http://www.w3.org/2000/svg" width="150mm" height="200mm" viewBox="0 0 150 200">
<rect x="0" y="0" width="150" height="200" rx="0" fill="#0f1213"/>
<circle cx="75" cy="14.5" r="3.4" fill="none" stroke="#e6a13c" stroke-width="1.3"/>
<text x="75" y="27.5" text-anchor="middle" font-family="Arial, Helvetica, sans-serif" font-size="5.6448" fill="#ffffff" font-weight="bold" letter-spacing="0.7761600000000001">MYALPS</text>
<text x="75" y="35" text-anchor="middle" font-family="Arial, Helvetica, sans-serif" font-size="2.9988" fill="#e6a13c" letter-spacing="0.84672">CHALET CECILIA</text>
<line x1="22" y1="43" x2="128" y2="43" stroke="#e6a13c" stroke-width="0.4"/>
<text x="75" y="55.5" text-anchor="middle" font-family="Arial, Helvetica, sans-serif" font-size="4.9392" fill="#ffffff" font-weight="bold">Wichtige Anreise-Infos</text>
<text x="75" y="63.5" text-anchor="middle" font-family="Arial, Helvetica, sans-serif" font-size="3.528" fill="#aab5b1" font-style="italic">Important arrival information!</text>
<text x="41" y="72" text-anchor="middle" font-family="Arial, Helvetica, sans-serif" font-size="2.68128" fill="#e6a13c" font-weight="bold" letter-spacing="0.28224">1  ·  WLAN VERBINDEN</text>
<text x="109" y="72" text-anchor="middle" font-family="Arial, Helvetica, sans-serif" font-size="2.68128" fill="#e6a13c" font-weight="bold" letter-spacing="0.28224">2  ·  ALLE INFOS</text>
<rect x="10" y="76" width="62" height="62" rx="3" fill="#ffffff"/>
<rect x="78" y="76" width="62" height="62" rx="3" fill="#ffffff"/>
<path d="M14.000 80.000h1.317v1.317h-1.317zM15.317 80.000h1.317v1.317h-1.317zM16.634 80.000h1.317v1.317h-1.317zM17.951 80.000h1.317v1.317h-1.317zM19.268 80.000h1.317v1.317h-1.317zM20.585 80.000h1.317v1.317h-1.317zM21.902 80.000h1.317v1.317h-1.317zM27.171 80.000h1.317v1.317h-1.317zM28.488 80.000h1.317v1.317h-1.317zM29.805 80.000h1.317v1.317h-1.317zM33.756 80.000h1.317v1.317h-1.317zM39.024 80.000h1.317v1.317h-1.317zM42.976 80.000h1.317v1.317h-1.317zM45.610 80.000h1.317v1.317h-1.317zM50.878 80.000h1.317v1.317h-1.317zM54.829 80.000h1.317v1.317h-1.317zM56.146 80.000h1.317v1.317h-1.317zM58.780 80.000h1.317v1.317h-1.317zM60.098 80.000h1.317v1.317h-1.317zM61.415 80.000h1.317v1.317h-1.317zM62.732 80.000h1.317v1.317h-1.317zM64.049 80.000h1.317v1.317h-1.317zM65.366 80.000h1.317v1.317h-1.317zM66.683 80.000h1.317v1.317h-1.317zM14.000 81.317h1.317v1.317h-1.317zM21.902 81.317h1.317v1.317h-1.317zM24.537 81.317h1.317v1.317h-1.317zM25.854 81.317h1.317v1.317h-1.317zM28.488 81.317h1.317v1.317h-1.317zM29.805 81.317h1.317v1.317h-1.317zM31.122 81.317h1.317v1.317h-1.317zM32.439 81.317h1.317v1.317h-1.317zM36.390 81.317h1.317v1.317h-1.317zM37.707 81.317h1.317v1.317h-1.317zM44.293 81.317h1.317v1.317h-1.317zM45.610 81.317h1.317v1.317h-1.317zM50.878 81.317h1.317v1.317h-1.317zM53.512 81.317h1.317v1.317h-1.317zM54.829 81.317h1.317v1.317h-1.317zM56.146 81.317h1.317v1.317h-1.317zM58.780 81.317h1.317v1.317h-1.317zM66.683 81.317h1.317v1.317h-1.317zM14.000 82.634h1.317v1.317h-1.317zM16.634 82.634h1.317v1.317h-1.317zM17.951 82.634h1.317v1.317h-1.317zM19.268 82.634h1.317v1.317h-1.317zM21.902 82.634h1.317v1.317h-1.317zM25.854 82.634h1.317v1.317h-1.317zM35.073 82.634h1.317v1.317h-1.317zM37.707 82.634h1.317v1.317h-1.317zM42.976 82.634h1.317v1.317h-1.317zM44.293 82.634h1.317v1.317h-1.317zM46.927 82.634h1.317v1.317h-1.317zM52.195 82.634h1.317v1.317h-1.317zM53.512 82.634h1.317v1.317h-1.317zM54.829 82.634h1.317v1.317h-1.317zM56.146 82.634h1.317v1.317h-1.317zM58.780 82.634h1.317v1.317h-1.317zM61.415 82.634h1.317v1.317h-1.317zM62.732 82.634h1.317v1.317h-1.317zM64.049 82.634h1.317v1.317h-1.317zM66.683 82.634h1.317v1.317h-1.317zM14.000 83.951h1.317v1.317h-1.317zM16.634 83.951h1.317v1.317h-1.317zM17.951 83.951h1.317v1.317h-1.317zM19.268 83.951h1.317v1.317h-1.317zM21.902 83.951h1.317v1.317h-1.317zM25.854 83.951h1.317v1.317h-1.317zM29.805 83.951h1.317v1.317h-1.317zM31.122 83.951h1.317v1.317h-1.317zM32.439 83.951h1.317v1.317h-1.317zM33.756 83.951h1.317v1.317h-1.317zM37.707 83.951h1.317v1.317h-1.317zM40.341 83.951h1.317v1.317h-1.317zM41.659 83.951h1.317v1.317h-1.317zM44.293 83.951h1.317v1.317h-1.317zM45.610 83.951h1.317v1.317h-1.317zM48.244 83.951h1.317v1.317h-1.317zM49.561 83.951h1.317v1.317h-1.317zM50.878 83.951h1.317v1.317h-1.317zM52.195 83.951h1.317v1.317h-1.317zM56.146 83.951h1.317v1.317h-1.317zM58.780 83.951h1.317v1.317h-1.317zM61.415 83.951h1.317v1.317h-1.317zM62.732 83.951h1.317v1.317h-1.317zM64.049 83.951h1.317v1.317h-1.317zM66.683 83.951h1.317v1.317h-1.317zM14.000 85.268h1.317v1.317h-1.317zM16.634 85.268h1.317v1.317h-1.317zM17.951 85.268h1.317v1.317h-1.317zM19.268 85.268h1.317v1.317h-1.317zM21.902 85.268h1.317v1.317h-1.317zM27.171 85.268h1.317v1.317h-1.317zM29.805 85.268h1.317v1.317h-1.317zM31.122 85.268h1.317v1.317h-1.317zM33.756 85.268h1.317v1.317h-1.317zM35.073 85.268h1.317v1.317h-1.317zM36.390 85.268h1.317v1.317h-1.317zM37.707 85.268h1.317v1.317h-1.317zM39.024 85.268h1.317v1.317h-1.317zM42.976 85.268h1.317v1.317h-1.317zM44.293 85.268h1.317v1.317h-1.317zM46.927 85.268h1.317v1.317h-1.317zM48.244 85.268h1.317v1.317h-1.317zM50.878 85.268h1.317v1.317h-1.317zM54.829 85.268h1.317v1.317h-1.317zM58.780 85.268h1.317v1.317h-1.317zM61.415 85.268h1.317v1.317h-1.317zM62.732 85.268h1.317v1.317h-1.317zM64.049 85.268h1.317v1.317h-1.317zM66.683 85.268h1.317v1.317h-1.317zM14.000 86.585h1.317v1.317h-1.317zM21.902 86.585h1.317v1.317h-1.317zM24.537 86.585h1.317v1.317h-1.317zM25.854 86.585h1.317v1.317h-1.317zM27.171 86.585h1.317v1.317h-1.317zM28.488 86.585h1.317v1.317h-1.317zM32.439 86.585h1.317v1.317h-1.317zM33.756 86.585h1.317v1.317h-1.317zM35.073 86.585h1.317v1.317h-1.317zM36.390 86.585h1.317v1.317h-1.317zM39.024 86.585h1.317v1.317h-1.317zM40.341 86.585h1.317v1.317h-1.317zM41.659 86.585h1.317v1.317h-1.317zM48.244 86.585h1.317v1.317h-1.317zM50.878 86.585h1.317v1.317h-1.317zM52.195 86.585h1.317v1.317h-1.317zM53.512 86.585h1.317v1.317h-1.317zM54.829 86.585h1.317v1.317h-1.317zM56.146 86.585h1.317v1.317h-1.317zM58.780 86.585h1.317v1.317h-1.317zM66.683 86.585h1.317v1.317h-1.317zM14.000 87.902h1.317v1.317h-1.317zM15.317 87.902h1.317v1.317h-1.317zM16.634 87.902h1.317v1.317h-1.317zM17.951 87.902h1.317v1.317h-1.317zM19.268 87.902h1.317v1.317h-1.317zM20.585 87.902h1.317v1.317h-1.317zM21.902 87.902h1.317v1.317h-1.317zM24.537 87.902h1.317v1.317h-1.317zM27.171 87.902h1.317v1.317h-1.317zM29.805 87.902h1.317v1.317h-1.317zM32.439 87.902h1.317v1.317h-1.317zM35.073 87.902h1.317v1.317h-1.317zM37.707 87.902h1.317v1.317h-1.317zM40.341 87.902h1.317v1.317h-1.317zM42.976 87.902h1.317v1.317h-1.317zM45.610 87.902h1.317v1.317h-1.317zM48.244 87.902h1.317v1.317h-1.317zM50.878 87.902h1.317v1.317h-1.317zM53.512 87.902h1.317v1.317h-1.317zM56.146 87.902h1.317v1.317h-1.317zM58.780 87.902h1.317v1.317h-1.317zM60.098 87.902h1.317v1.317h-1.317zM61.415 87.902h1.317v1.317h-1.317zM62.732 87.902h1.317v1.317h-1.317zM64.049 87.902h1.317v1.317h-1.317zM65.366 87.902h1.317v1.317h-1.317zM66.683 87.902h1.317v1.317h-1.317zM24.537 89.220h1.317v1.317h-1.317zM25.854 89.220h1.317v1.317h-1.317zM27.171 89.220h1.317v1.317h-1.317zM33.756 89.220h1.317v1.317h-1.317zM35.073 89.220h1.317v1.317h-1.317zM39.024 89.220h1.317v1.317h-1.317zM40.341 89.220h1.317v1.317h-1.317zM42.976 89.220h1.317v1.317h-1.317zM44.293 89.220h1.317v1.317h-1.317zM45.610 89.220h1.317v1.317h-1.317zM46.927 89.220h1.317v1.317h-1.317zM48.244 89.220h1.317v1.317h-1.317zM53.512 89.220h1.317v1.317h-1.317zM54.829 89.220h1.317v1.317h-1.317zM56.146 89.220h1.317v1.317h-1.317zM19.268 90.537h1.317v1.317h-1.317zM20.585 90.537h1.317v1.317h-1.317zM21.902 90.537h1.317v1.317h-1.317zM23.220 90.537h1.317v1.317h-1.317zM29.805 90.537h1.317v1.317h-1.317zM33.756 90.537h1.317v1.317h-1.317zM35.073 90.537h1.317v1.317h-1.317zM36.390 90.537h1.317v1.317h-1.317zM37.707 90.537h1.317v1.317h-1.317zM45.610 90.537h1.317v1.317h-1.317zM52.195 90.537h1.317v1.317h-1.317zM53.512 90.537h1.317v1.317h-1.317zM54.829 90.537h1.317v1.317h-1.317zM56.146 90.537h1.317v1.317h-1.317zM58.780 90.537h1.317v1.317h-1.317zM60.098 90.537h1.317v1.317h-1.317zM65.366 90.537h1.317v1.317h-1.317zM14.000 91.854h1.317v1.317h-1.317zM17.951 91.854h1.317v1.317h-1.317zM19.268 91.854h1.317v1.317h-1.317zM20.585 91.854h1.317v1.317h-1.317zM23.220 91.854h1.317v1.317h-1.317zM24.537 91.854h1.317v1.317h-1.317zM28.488 91.854h1.317v1.317h-1.317zM36.390 91.854h1.317v1.317h-1.317zM39.024 91.854h1.317v1.317h-1.317zM40.341 91.854h1.317v1.317h-1.317zM42.976 91.854h1.317v1.317h-1.317zM44.293 91.854h1.317v1.317h-1.317zM46.927 91.854h1.317v1.317h-1.317zM54.829 91.854h1.317v1.317h-1.317zM56.146 91.854h1.317v1.317h-1.317zM61.415 91.854h1.317v1.317h-1.317zM62.732 91.854h1.317v1.317h-1.317zM65.366 91.854h1.317v1.317h-1.317zM66.683 91.854h1.317v1.317h-1.317zM14.000 93.171h1.317v1.317h-1.317zM16.634 93.171h1.317v1.317h-1.317zM17.951 93.171h1.317v1.317h-1.317zM19.268 93.171h1.317v1.317h-1.317zM21.902 93.171h1.317v1.317h-1.317zM25.854 93.171h1.317v1.317h-1.317zM28.488 93.171h1.317v1.317h-1.317zM29.805 93.171h1.317v1.317h-1.317zM31.122 93.171h1.317v1.317h-1.317zM36.390 93.171h1.317v1.317h-1.317zM37.707 93.171h1.317v1.317h-1.317zM39.024 93.171h1.317v1.317h-1.317zM42.976 93.171h1.317v1.317h-1.317zM44.293 93.171h1.317v1.317h-1.317zM45.610 93.171h1.317v1.317h-1.317zM50.878 93.171h1.317v1.317h-1.317zM53.512 93.171h1.317v1.317h-1.317zM54.829 93.171h1.317v1.317h-1.317zM57.463 93.171h1.317v1.317h-1.317zM58.780 93.171h1.317v1.317h-1.317zM62.732 93.171h1.317v1.317h-1.317zM64.049 93.171h1.317v1.317h-1.317zM65.366 93.171h1.317v1.317h-1.317zM66.683 93.171h1.317v1.317h-1.317zM19.268 94.488h1.317v1.317h-1.317zM23.220 94.488h1.317v1.317h-1.317zM31.122 94.488h1.317v1.317h-1.317zM32.439 94.488h1.317v1.317h-1.317zM33.756 94.488h1.317v1.317h-1.317zM40.341 94.488h1.317v1.317h-1.317zM41.659 94.488h1.317v1.317h-1.317zM42.976 94.488h1.317v1.317h-1.317zM45.610 94.488h1.317v1.317h-1.317zM46.927 94.488h1.317v1.317h-1.317zM52.195 94.488h1.317v1.317h-1.317zM53.512 94.488h1.317v1.317h-1.317zM54.829 94.488h1.317v1.317h-1.317zM57.463 94.488h1.317v1.317h-1.317zM58.780 94.488h1.317v1.317h-1.317zM16.634 95.805h1.317v1.317h-1.317zM17.951 95.805h1.317v1.317h-1.317zM20.585 95.805h1.317v1.317h-1.317zM21.902 95.805h1.317v1.317h-1.317zM23.220 95.805h1.317v1.317h-1.317zM27.171 95.805h1.317v1.317h-1.317zM28.488 95.805h1.317v1.317h-1.317zM29.805 95.805h1.317v1.317h-1.317zM32.439 95.805h1.317v1.317h-1.317zM35.073 95.805h1.317v1.317h-1.317zM36.390 95.805h1.317v1.317h-1.317zM39.024 95.805h1.317v1.317h-1.317zM42.976 95.805h1.317v1.317h-1.317zM46.927 95.805h1.317v1.317h-1.317zM48.244 95.805h1.317v1.317h-1.317zM50.878 95.805h1.317v1.317h-1.317zM52.195 95.805h1.317v1.317h-1.317zM53.512 95.805h1.317v1.317h-1.317zM54.829 95.805h1.317v1.317h-1.317zM56.146 95.805h1.317v1.317h-1.317zM60.098 95.805h1.317v1.317h-1.317zM61.415 95.805h1.317v1.317h-1.317zM62.732 95.805h1.317v1.317h-1.317zM65.366 95.805h1.317v1.317h-1.317zM14.000 97.122h1.317v1.317h-1.317zM15.317 97.122h1.317v1.317h-1.317zM20.585 97.122h1.317v1.317h-1.317zM25.854 97.122h1.317v1.317h-1.317zM27.171 97.122h1.317v1.317h-1.317zM33.756 97.122h1.317v1.317h-1.317zM35.073 97.122h1.317v1.317h-1.317zM37.707 97.122h1.317v1.317h-1.317zM39.024 97.122h1.317v1.317h-1.317zM40.341 97.122h1.317v1.317h-1.317zM45.610 97.122h1.317v1.317h-1.317zM48.244 97.122h1.317v1.317h-1.317zM54.829 97.122h1.317v1.317h-1.317zM60.098 97.122h1.317v1.317h-1.317zM61.415 97.122h1.317v1.317h-1.317zM64.049 97.122h1.317v1.317h-1.317zM65.366 97.122h1.317v1.317h-1.317zM66.683 97.122h1.317v1.317h-1.317zM14.000 98.439h1.317v1.317h-1.317zM15.317 98.439h1.317v1.317h-1.317zM16.634 98.439h1.317v1.317h-1.317zM20.585 98.439h1.317v1.317h-1.317zM21.902 98.439h1.317v1.317h-1.317zM23.220 98.439h1.317v1.317h-1.317zM25.854 98.439h1.317v1.317h-1.317zM28.488 98.439h1.317v1.317h-1.317zM29.805 98.439h1.317v1.317h-1.317zM32.439 98.439h1.317v1.317h-1.317zM33.756 98.439h1.317v1.317h-1.317zM35.073 98.439h1.317v1.317h-1.317zM36.390 98.439h1.317v1.317h-1.317zM37.707 98.439h1.317v1.317h-1.317zM41.659 98.439h1.317v1.317h-1.317zM45.610 98.439h1.317v1.317h-1.317zM46.927 98.439h1.317v1.317h-1.317zM48.244 98.439h1.317v1.317h-1.317zM49.561 98.439h1.317v1.317h-1.317zM53.512 98.439h1.317v1.317h-1.317zM54.829 98.439h1.317v1.317h-1.317zM60.098 98.439h1.317v1.317h-1.317zM61.415 98.439h1.317v1.317h-1.317zM64.049 98.439h1.317v1.317h-1.317zM14.000 99.756h1.317v1.317h-1.317zM16.634 99.756h1.317v1.317h-1.317zM17.951 99.756h1.317v1.317h-1.317zM19.268 99.756h1.317v1.317h-1.317zM20.585 99.756h1.317v1.317h-1.317zM23.220 99.756h1.317v1.317h-1.317zM25.854 99.756h1.317v1.317h-1.317zM29.805 99.756h1.317v1.317h-1.317zM31.122 99.756h1.317v1.317h-1.317zM33.756 99.756h1.317v1.317h-1.317zM36.390 99.756h1.317v1.317h-1.317zM39.024 99.756h1.317v1.317h-1.317zM41.659 99.756h1.317v1.317h-1.317zM45.610 99.756h1.317v1.317h-1.317zM49.561 99.756h1.317v1.317h-1.317zM50.878 99.756h1.317v1.317h-1.317zM54.829 99.756h1.317v1.317h-1.317zM56.146 99.756h1.317v1.317h-1.317zM57.463 99.756h1.317v1.317h-1.317zM64.049 99.756h1.317v1.317h-1.317zM65.366 99.756h1.317v1.317h-1.317zM15.317 101.073h1.317v1.317h-1.317zM16.634 101.073h1.317v1.317h-1.317zM21.902 101.073h1.317v1.317h-1.317zM24.537 101.073h1.317v1.317h-1.317zM29.805 101.073h1.317v1.317h-1.317zM32.439 101.073h1.317v1.317h-1.317zM35.073 101.073h1.317v1.317h-1.317zM37.707 101.073h1.317v1.317h-1.317zM44.293 101.073h1.317v1.317h-1.317zM45.610 101.073h1.317v1.317h-1.317zM48.244 101.073h1.317v1.317h-1.317zM50.878 101.073h1.317v1.317h-1.317zM56.146 101.073h1.317v1.317h-1.317zM57.463 101.073h1.317v1.317h-1.317zM58.780 101.073h1.317v1.317h-1.317zM60.098 101.073h1.317v1.317h-1.317zM62.732 101.073h1.317v1.317h-1.317zM64.049 101.073h1.317v1.317h-1.317zM65.366 101.073h1.317v1.317h-1.317zM14.000 102.390h1.317v1.317h-1.317zM16.634 102.390h1.317v1.317h-1.317zM17.951 102.390h1.317v1.317h-1.317zM19.268 102.390h1.317v1.317h-1.317zM23.220 102.390h1.317v1.317h-1.317zM29.805 102.390h1.317v1.317h-1.317zM31.122 102.390h1.317v1.317h-1.317zM32.439 102.390h1.317v1.317h-1.317zM36.390 102.390h1.317v1.317h-1.317zM37.707 102.390h1.317v1.317h-1.317zM39.024 102.390h1.317v1.317h-1.317zM46.927 102.390h1.317v1.317h-1.317zM48.244 102.390h1.317v1.317h-1.317zM49.561 102.390h1.317v1.317h-1.317zM50.878 102.390h1.317v1.317h-1.317zM52.195 102.390h1.317v1.317h-1.317zM53.512 102.390h1.317v1.317h-1.317zM54.829 102.390h1.317v1.317h-1.317zM56.146 102.390h1.317v1.317h-1.317zM58.780 102.390h1.317v1.317h-1.317zM60.098 102.390h1.317v1.317h-1.317zM61.415 102.390h1.317v1.317h-1.317zM64.049 102.390h1.317v1.317h-1.317zM65.366 102.390h1.317v1.317h-1.317zM66.683 102.390h1.317v1.317h-1.317zM14.000 103.707h1.317v1.317h-1.317zM15.317 103.707h1.317v1.317h-1.317zM16.634 103.707h1.317v1.317h-1.317zM19.268 103.707h1.317v1.317h-1.317zM20.585 103.707h1.317v1.317h-1.317zM21.902 103.707h1.317v1.317h-1.317zM28.488 103.707h1.317v1.317h-1.317zM29.805 103.707h1.317v1.317h-1.317zM31.122 103.707h1.317v1.317h-1.317zM39.024 103.707h1.317v1.317h-1.317zM41.659 103.707h1.317v1.317h-1.317zM44.293 103.707h1.317v1.317h-1.317zM45.610 103.707h1.317v1.317h-1.317zM49.561 103.707h1.317v1.317h-1.317zM50.878 103.707h1.317v1.317h-1.317zM53.512 103.707h1.317v1.317h-1.317zM54.829 103.707h1.317v1.317h-1.317zM58.780 103.707h1.317v1.317h-1.317zM60.098 103.707h1.317v1.317h-1.317zM61.415 103.707h1.317v1.317h-1.317zM62.732 103.707h1.317v1.317h-1.317zM64.049 103.707h1.317v1.317h-1.317zM65.366 103.707h1.317v1.317h-1.317zM66.683 103.707h1.317v1.317h-1.317zM16.634 105.024h1.317v1.317h-1.317zM20.585 105.024h1.317v1.317h-1.317zM25.854 105.024h1.317v1.317h-1.317zM28.488 105.024h1.317v1.317h-1.317zM33.756 105.024h1.317v1.317h-1.317zM39.024 105.024h1.317v1.317h-1.317zM41.659 105.024h1.317v1.317h-1.317zM42.976 105.024h1.317v1.317h-1.317zM45.610 105.024h1.317v1.317h-1.317zM48.244 105.024h1.317v1.317h-1.317zM54.829 105.024h1.317v1.317h-1.317zM56.146 105.024h1.317v1.317h-1.317zM65.366 105.024h1.317v1.317h-1.317zM66.683 105.024h1.317v1.317h-1.317zM16.634 106.341h1.317v1.317h-1.317zM19.268 106.341h1.317v1.317h-1.317zM21.902 106.341h1.317v1.317h-1.317zM23.220 106.341h1.317v1.317h-1.317zM24.537 106.341h1.317v1.317h-1.317zM27.171 106.341h1.317v1.317h-1.317zM28.488 106.341h1.317v1.317h-1.317zM31.122 106.341h1.317v1.317h-1.317zM32.439 106.341h1.317v1.317h-1.317zM36.390 106.341h1.317v1.317h-1.317zM42.976 106.341h1.317v1.317h-1.317zM44.293 106.341h1.317v1.317h-1.317zM45.610 106.341h1.317v1.317h-1.317zM50.878 106.341h1.317v1.317h-1.317zM54.829 106.341h1.317v1.317h-1.317zM57.463 106.341h1.317v1.317h-1.317zM60.098 106.341h1.317v1.317h-1.317zM62.732 106.341h1.317v1.317h-1.317zM65.366 106.341h1.317v1.317h-1.317zM14.000 107.659h1.317v1.317h-1.317zM16.634 107.659h1.317v1.317h-1.317zM17.951 107.659h1.317v1.317h-1.317zM25.854 107.659h1.317v1.317h-1.317zM27.171 107.659h1.317v1.317h-1.317zM28.488 107.659h1.317v1.317h-1.317zM29.805 107.659h1.317v1.317h-1.317zM31.122 107.659h1.317v1.317h-1.317zM32.439 107.659h1.317v1.317h-1.317zM33.756 107.659h1.317v1.317h-1.317zM36.390 107.659h1.317v1.317h-1.317zM39.024 107.659h1.317v1.317h-1.317zM40.341 107.659h1.317v1.317h-1.317zM42.976 107.659h1.317v1.317h-1.317zM45.610 107.659h1.317v1.317h-1.317zM46.927 107.659h1.317v1.317h-1.317zM48.244 107.659h1.317v1.317h-1.317zM50.878 107.659h1.317v1.317h-1.317zM53.512 107.659h1.317v1.317h-1.317zM54.829 107.659h1.317v1.317h-1.317zM64.049 107.659h1.317v1.317h-1.317zM65.366 107.659h1.317v1.317h-1.317zM15.317 108.976h1.317v1.317h-1.317zM20.585 108.976h1.317v1.317h-1.317zM21.902 108.976h1.317v1.317h-1.317zM23.220 108.976h1.317v1.317h-1.317zM24.537 108.976h1.317v1.317h-1.317zM25.854 108.976h1.317v1.317h-1.317zM28.488 108.976h1.317v1.317h-1.317zM29.805 108.976h1.317v1.317h-1.317zM31.122 108.976h1.317v1.317h-1.317zM35.073 108.976h1.317v1.317h-1.317zM39.024 108.976h1.317v1.317h-1.317zM40.341 108.976h1.317v1.317h-1.317zM41.659 108.976h1.317v1.317h-1.317zM42.976 108.976h1.317v1.317h-1.317zM46.927 108.976h1.317v1.317h-1.317zM49.561 108.976h1.317v1.317h-1.317zM50.878 108.976h1.317v1.317h-1.317zM52.195 108.976h1.317v1.317h-1.317zM53.512 108.976h1.317v1.317h-1.317zM56.146 108.976h1.317v1.317h-1.317zM57.463 108.976h1.317v1.317h-1.317zM58.780 108.976h1.317v1.317h-1.317zM61.415 108.976h1.317v1.317h-1.317zM62.732 108.976h1.317v1.317h-1.317zM64.049 108.976h1.317v1.317h-1.317zM66.683 108.976h1.317v1.317h-1.317zM15.317 110.293h1.317v1.317h-1.317zM16.634 110.293h1.317v1.317h-1.317zM17.951 110.293h1.317v1.317h-1.317zM19.268 110.293h1.317v1.317h-1.317zM23.220 110.293h1.317v1.317h-1.317zM24.537 110.293h1.317v1.317h-1.317zM25.854 110.293h1.317v1.317h-1.317zM28.488 110.293h1.317v1.317h-1.317zM31.122 110.293h1.317v1.317h-1.317zM32.439 110.293h1.317v1.317h-1.317zM33.756 110.293h1.317v1.317h-1.317zM35.073 110.293h1.317v1.317h-1.317zM37.707 110.293h1.317v1.317h-1.317zM42.976 110.293h1.317v1.317h-1.317zM45.610 110.293h1.317v1.317h-1.317zM46.927 110.293h1.317v1.317h-1.317zM52.195 110.293h1.317v1.317h-1.317zM53.512 110.293h1.317v1.317h-1.317zM54.829 110.293h1.317v1.317h-1.317zM56.146 110.293h1.317v1.317h-1.317zM60.098 110.293h1.317v1.317h-1.317zM62.732 110.293h1.317v1.317h-1.317zM66.683 110.293h1.317v1.317h-1.317zM14.000 111.610h1.317v1.317h-1.317zM16.634 111.610h1.317v1.317h-1.317zM17.951 111.610h1.317v1.317h-1.317zM20.585 111.610h1.317v1.317h-1.317zM21.902 111.610h1.317v1.317h-1.317zM23.220 111.610h1.317v1.317h-1.317zM25.854 111.610h1.317v1.317h-1.317zM28.488 111.610h1.317v1.317h-1.317zM32.439 111.610h1.317v1.317h-1.317zM33.756 111.610h1.317v1.317h-1.317zM36.390 111.610h1.317v1.317h-1.317zM39.024 111.610h1.317v1.317h-1.317zM40.341 111.610h1.317v1.317h-1.317zM41.659 111.610h1.317v1.317h-1.317zM42.976 111.610h1.317v1.317h-1.317zM44.293 111.610h1.317v1.317h-1.317zM45.610 111.610h1.317v1.317h-1.317zM46.927 111.610h1.317v1.317h-1.317zM52.195 111.610h1.317v1.317h-1.317zM53.512 111.610h1.317v1.317h-1.317zM54.829 111.610h1.317v1.317h-1.317zM56.146 111.610h1.317v1.317h-1.317zM58.780 111.610h1.317v1.317h-1.317zM60.098 111.610h1.317v1.317h-1.317zM62.732 111.610h1.317v1.317h-1.317zM64.049 111.610h1.317v1.317h-1.317zM65.366 111.610h1.317v1.317h-1.317zM15.317 112.927h1.317v1.317h-1.317zM16.634 112.927h1.317v1.317h-1.317zM17.951 112.927h1.317v1.317h-1.317zM20.585 112.927h1.317v1.317h-1.317zM23.220 112.927h1.317v1.317h-1.317zM27.171 112.927h1.317v1.317h-1.317zM28.488 112.927h1.317v1.317h-1.317zM33.756 112.927h1.317v1.317h-1.317zM35.073 112.927h1.317v1.317h-1.317zM37.707 112.927h1.317v1.317h-1.317zM39.024 112.927h1.317v1.317h-1.317zM40.341 112.927h1.317v1.317h-1.317zM42.976 112.927h1.317v1.317h-1.317zM44.293 112.927h1.317v1.317h-1.317zM46.927 112.927h1.317v1.317h-1.317zM50.878 112.927h1.317v1.317h-1.317zM54.829 112.927h1.317v1.317h-1.317zM58.780 112.927h1.317v1.317h-1.317zM64.049 112.927h1.317v1.317h-1.317zM65.366 112.927h1.317v1.317h-1.317zM14.000 114.244h1.317v1.317h-1.317zM16.634 114.244h1.317v1.317h-1.317zM20.585 114.244h1.317v1.317h-1.317zM21.902 114.244h1.317v1.317h-1.317zM24.537 114.244h1.317v1.317h-1.317zM25.854 114.244h1.317v1.317h-1.317zM27.171 114.244h1.317v1.317h-1.317zM29.805 114.244h1.317v1.317h-1.317zM33.756 114.244h1.317v1.317h-1.317zM35.073 114.244h1.317v1.317h-1.317zM39.024 114.244h1.317v1.317h-1.317zM46.927 114.244h1.317v1.317h-1.317zM48.244 114.244h1.317v1.317h-1.317zM49.561 114.244h1.317v1.317h-1.317zM53.512 114.244h1.317v1.317h-1.317zM56.146 114.244h1.317v1.317h-1.317zM61.415 114.244h1.317v1.317h-1.317zM62.732 114.244h1.317v1.317h-1.317zM66.683 114.244h1.317v1.317h-1.317zM15.317 115.561h1.317v1.317h-1.317zM16.634 115.561h1.317v1.317h-1.317zM17.951 115.561h1.317v1.317h-1.317zM19.268 115.561h1.317v1.317h-1.317zM27.171 115.561h1.317v1.317h-1.317zM31.122 115.561h1.317v1.317h-1.317zM32.439 115.561h1.317v1.317h-1.317zM37.707 115.561h1.317v1.317h-1.317zM42.976 115.561h1.317v1.317h-1.317zM45.610 115.561h1.317v1.317h-1.317zM46.927 115.561h1.317v1.317h-1.317zM49.561 115.561h1.317v1.317h-1.317zM52.195 115.561h1.317v1.317h-1.317zM53.512 115.561h1.317v1.317h-1.317zM54.829 115.561h1.317v1.317h-1.317zM56.146 115.561h1.317v1.317h-1.317zM57.463 115.561h1.317v1.317h-1.317zM60.098 115.561h1.317v1.317h-1.317zM62.732 115.561h1.317v1.317h-1.317zM65.366 115.561h1.317v1.317h-1.317zM14.000 116.878h1.317v1.317h-1.317zM15.317 116.878h1.317v1.317h-1.317zM16.634 116.878h1.317v1.317h-1.317zM17.951 116.878h1.317v1.317h-1.317zM19.268 116.878h1.317v1.317h-1.317zM21.902 116.878h1.317v1.317h-1.317zM24.537 116.878h1.317v1.317h-1.317zM29.805 116.878h1.317v1.317h-1.317zM32.439 116.878h1.317v1.317h-1.317zM42.976 116.878h1.317v1.317h-1.317zM46.927 116.878h1.317v1.317h-1.317zM57.463 116.878h1.317v1.317h-1.317zM58.780 116.878h1.317v1.317h-1.317zM61.415 116.878h1.317v1.317h-1.317zM62.732 116.878h1.317v1.317h-1.317zM65.366 116.878h1.317v1.317h-1.317zM14.000 118.195h1.317v1.317h-1.317zM17.951 118.195h1.317v1.317h-1.317zM19.268 118.195h1.317v1.317h-1.317zM20.585 118.195h1.317v1.317h-1.317zM25.854 118.195h1.317v1.317h-1.317zM28.488 118.195h1.317v1.317h-1.317zM29.805 118.195h1.317v1.317h-1.317zM31.122 118.195h1.317v1.317h-1.317zM39.024 118.195h1.317v1.317h-1.317zM40.341 118.195h1.317v1.317h-1.317zM41.659 118.195h1.317v1.317h-1.317zM46.927 118.195h1.317v1.317h-1.317zM50.878 118.195h1.317v1.317h-1.317zM53.512 118.195h1.317v1.317h-1.317zM54.829 118.195h1.317v1.317h-1.317zM56.146 118.195h1.317v1.317h-1.317zM60.098 118.195h1.317v1.317h-1.317zM64.049 118.195h1.317v1.317h-1.317zM65.366 118.195h1.317v1.317h-1.317zM66.683 118.195h1.317v1.317h-1.317zM17.951 119.512h1.317v1.317h-1.317zM19.268 119.512h1.317v1.317h-1.317zM20.585 119.512h1.317v1.317h-1.317zM21.902 119.512h1.317v1.317h-1.317zM23.220 119.512h1.317v1.317h-1.317zM25.854 119.512h1.317v1.317h-1.317zM27.171 119.512h1.317v1.317h-1.317zM29.805 119.512h1.317v1.317h-1.317zM31.122 119.512h1.317v1.317h-1.317zM32.439 119.512h1.317v1.317h-1.317zM36.390 119.512h1.317v1.317h-1.317zM39.024 119.512h1.317v1.317h-1.317zM40.341 119.512h1.317v1.317h-1.317zM42.976 119.512h1.317v1.317h-1.317zM44.293 119.512h1.317v1.317h-1.317zM46.927 119.512h1.317v1.317h-1.317zM50.878 119.512h1.317v1.317h-1.317zM53.512 119.512h1.317v1.317h-1.317zM56.146 119.512h1.317v1.317h-1.317zM58.780 119.512h1.317v1.317h-1.317zM60.098 119.512h1.317v1.317h-1.317zM61.415 119.512h1.317v1.317h-1.317zM64.049 119.512h1.317v1.317h-1.317zM66.683 119.512h1.317v1.317h-1.317zM16.634 120.829h1.317v1.317h-1.317zM17.951 120.829h1.317v1.317h-1.317zM23.220 120.829h1.317v1.317h-1.317zM24.537 120.829h1.317v1.317h-1.317zM27.171 120.829h1.317v1.317h-1.317zM32.439 120.829h1.317v1.317h-1.317zM33.756 120.829h1.317v1.317h-1.317zM36.390 120.829h1.317v1.317h-1.317zM37.707 120.829h1.317v1.317h-1.317zM42.976 120.829h1.317v1.317h-1.317zM44.293 120.829h1.317v1.317h-1.317zM45.610 120.829h1.317v1.317h-1.317zM48.244 120.829h1.317v1.317h-1.317zM52.195 120.829h1.317v1.317h-1.317zM57.463 120.829h1.317v1.317h-1.317zM58.780 120.829h1.317v1.317h-1.317zM14.000 122.146h1.317v1.317h-1.317zM15.317 122.146h1.317v1.317h-1.317zM16.634 122.146h1.317v1.317h-1.317zM20.585 122.146h1.317v1.317h-1.317zM21.902 122.146h1.317v1.317h-1.317zM23.220 122.146h1.317v1.317h-1.317zM27.171 122.146h1.317v1.317h-1.317zM31.122 122.146h1.317v1.317h-1.317zM32.439 122.146h1.317v1.317h-1.317zM41.659 122.146h1.317v1.317h-1.317zM42.976 122.146h1.317v1.317h-1.317zM44.293 122.146h1.317v1.317h-1.317zM48.244 122.146h1.317v1.317h-1.317zM49.561 122.146h1.317v1.317h-1.317zM54.829 122.146h1.317v1.317h-1.317zM56.146 122.146h1.317v1.317h-1.317zM57.463 122.146h1.317v1.317h-1.317zM58.780 122.146h1.317v1.317h-1.317zM60.098 122.146h1.317v1.317h-1.317zM61.415 122.146h1.317v1.317h-1.317zM64.049 122.146h1.317v1.317h-1.317zM65.366 122.146h1.317v1.317h-1.317zM24.537 123.463h1.317v1.317h-1.317zM27.171 123.463h1.317v1.317h-1.317zM28.488 123.463h1.317v1.317h-1.317zM31.122 123.463h1.317v1.317h-1.317zM33.756 123.463h1.317v1.317h-1.317zM36.390 123.463h1.317v1.317h-1.317zM37.707 123.463h1.317v1.317h-1.317zM39.024 123.463h1.317v1.317h-1.317zM41.659 123.463h1.317v1.317h-1.317zM42.976 123.463h1.317v1.317h-1.317zM44.293 123.463h1.317v1.317h-1.317zM45.610 123.463h1.317v1.317h-1.317zM48.244 123.463h1.317v1.317h-1.317zM50.878 123.463h1.317v1.317h-1.317zM56.146 123.463h1.317v1.317h-1.317zM61.415 123.463h1.317v1.317h-1.317zM64.049 123.463h1.317v1.317h-1.317zM65.366 123.463h1.317v1.317h-1.317zM14.000 124.780h1.317v1.317h-1.317zM15.317 124.780h1.317v1.317h-1.317zM16.634 124.780h1.317v1.317h-1.317zM17.951 124.780h1.317v1.317h-1.317zM19.268 124.780h1.317v1.317h-1.317zM20.585 124.780h1.317v1.317h-1.317zM21.902 124.780h1.317v1.317h-1.317zM24.537 124.780h1.317v1.317h-1.317zM27.171 124.780h1.317v1.317h-1.317zM29.805 124.780h1.317v1.317h-1.317zM33.756 124.780h1.317v1.317h-1.317zM35.073 124.780h1.317v1.317h-1.317zM37.707 124.780h1.317v1.317h-1.317zM39.024 124.780h1.317v1.317h-1.317zM41.659 124.780h1.317v1.317h-1.317zM44.293 124.780h1.317v1.317h-1.317zM45.610 124.780h1.317v1.317h-1.317zM48.244 124.780h1.317v1.317h-1.317zM49.561 124.780h1.317v1.317h-1.317zM52.195 124.780h1.317v1.317h-1.317zM54.829 124.780h1.317v1.317h-1.317zM56.146 124.780h1.317v1.317h-1.317zM58.780 124.780h1.317v1.317h-1.317zM61.415 124.780h1.317v1.317h-1.317zM64.049 124.780h1.317v1.317h-1.317zM66.683 124.780h1.317v1.317h-1.317zM14.000 126.098h1.317v1.317h-1.317zM21.902 126.098h1.317v1.317h-1.317zM24.537 126.098h1.317v1.317h-1.317zM25.854 126.098h1.317v1.317h-1.317zM27.171 126.098h1.317v1.317h-1.317zM32.439 126.098h1.317v1.317h-1.317zM37.707 126.098h1.317v1.317h-1.317zM41.659 126.098h1.317v1.317h-1.317zM48.244 126.098h1.317v1.317h-1.317zM52.195 126.098h1.317v1.317h-1.317zM53.512 126.098h1.317v1.317h-1.317zM56.146 126.098h1.317v1.317h-1.317zM61.415 126.098h1.317v1.317h-1.317zM64.049 126.098h1.317v1.317h-1.317zM65.366 126.098h1.317v1.317h-1.317zM14.000 127.415h1.317v1.317h-1.317zM16.634 127.415h1.317v1.317h-1.317zM17.951 127.415h1.317v1.317h-1.317zM19.268 127.415h1.317v1.317h-1.317zM21.902 127.415h1.317v1.317h-1.317zM24.537 127.415h1.317v1.317h-1.317zM27.171 127.415h1.317v1.317h-1.317zM28.488 127.415h1.317v1.317h-1.317zM29.805 127.415h1.317v1.317h-1.317zM35.073 127.415h1.317v1.317h-1.317zM45.610 127.415h1.317v1.317h-1.317zM53.512 127.415h1.317v1.317h-1.317zM54.829 127.415h1.317v1.317h-1.317zM56.146 127.415h1.317v1.317h-1.317zM57.463 127.415h1.317v1.317h-1.317zM58.780 127.415h1.317v1.317h-1.317zM60.098 127.415h1.317v1.317h-1.317zM61.415 127.415h1.317v1.317h-1.317zM65.366 127.415h1.317v1.317h-1.317zM14.000 128.732h1.317v1.317h-1.317zM16.634 128.732h1.317v1.317h-1.317zM17.951 128.732h1.317v1.317h-1.317zM19.268 128.732h1.317v1.317h-1.317zM21.902 128.732h1.317v1.317h-1.317zM25.854 128.732h1.317v1.317h-1.317zM27.171 128.732h1.317v1.317h-1.317zM28.488 128.732h1.317v1.317h-1.317zM29.805 128.732h1.317v1.317h-1.317zM31.122 128.732h1.317v1.317h-1.317zM32.439 128.732h1.317v1.317h-1.317zM33.756 128.732h1.317v1.317h-1.317zM35.073 128.732h1.317v1.317h-1.317zM39.024 128.732h1.317v1.317h-1.317zM44.293 128.732h1.317v1.317h-1.317zM45.610 128.732h1.317v1.317h-1.317zM48.244 128.732h1.317v1.317h-1.317zM49.561 128.732h1.317v1.317h-1.317zM50.878 128.732h1.317v1.317h-1.317zM54.829 128.732h1.317v1.317h-1.317zM57.463 128.732h1.317v1.317h-1.317zM60.098 128.732h1.317v1.317h-1.317zM62.732 128.732h1.317v1.317h-1.317zM64.049 128.732h1.317v1.317h-1.317zM14.000 130.049h1.317v1.317h-1.317zM16.634 130.049h1.317v1.317h-1.317zM17.951 130.049h1.317v1.317h-1.317zM19.268 130.049h1.317v1.317h-1.317zM21.902 130.049h1.317v1.317h-1.317zM25.854 130.049h1.317v1.317h-1.317zM27.171 130.049h1.317v1.317h-1.317zM31.122 130.049h1.317v1.317h-1.317zM35.073 130.049h1.317v1.317h-1.317zM40.341 130.049h1.317v1.317h-1.317zM41.659 130.049h1.317v1.317h-1.317zM50.878 130.049h1.317v1.317h-1.317zM54.829 130.049h1.317v1.317h-1.317zM57.463 130.049h1.317v1.317h-1.317zM61.415 130.049h1.317v1.317h-1.317zM62.732 130.049h1.317v1.317h-1.317zM64.049 130.049h1.317v1.317h-1.317zM65.366 130.049h1.317v1.317h-1.317zM66.683 130.049h1.317v1.317h-1.317zM14.000 131.366h1.317v1.317h-1.317zM21.902 131.366h1.317v1.317h-1.317zM27.171 131.366h1.317v1.317h-1.317zM28.488 131.366h1.317v1.317h-1.317zM29.805 131.366h1.317v1.317h-1.317zM31.122 131.366h1.317v1.317h-1.317zM32.439 131.366h1.317v1.317h-1.317zM33.756 131.366h1.317v1.317h-1.317zM36.390 131.366h1.317v1.317h-1.317zM40.341 131.366h1.317v1.317h-1.317zM42.976 131.366h1.317v1.317h-1.317zM45.610 131.366h1.317v1.317h-1.317zM49.561 131.366h1.317v1.317h-1.317zM53.512 131.366h1.317v1.317h-1.317zM54.829 131.366h1.317v1.317h-1.317zM56.146 131.366h1.317v1.317h-1.317zM58.780 131.366h1.317v1.317h-1.317zM61.415 131.366h1.317v1.317h-1.317zM64.049 131.366h1.317v1.317h-1.317zM65.366 131.366h1.317v1.317h-1.317zM14.000 132.683h1.317v1.317h-1.317zM15.317 132.683h1.317v1.317h-1.317zM16.634 132.683h1.317v1.317h-1.317zM17.951 132.683h1.317v1.317h-1.317zM19.268 132.683h1.317v1.317h-1.317zM20.585 132.683h1.317v1.317h-1.317zM21.902 132.683h1.317v1.317h-1.317zM27.171 132.683h1.317v1.317h-1.317zM28.488 132.683h1.317v1.317h-1.317zM29.805 132.683h1.317v1.317h-1.317zM31.122 132.683h1.317v1.317h-1.317zM32.439 132.683h1.317v1.317h-1.317zM36.390 132.683h1.317v1.317h-1.317zM37.707 132.683h1.317v1.317h-1.317zM39.024 132.683h1.317v1.317h-1.317zM44.293 132.683h1.317v1.317h-1.317zM48.244 132.683h1.317v1.317h-1.317zM52.195 132.683h1.317v1.317h-1.317zM53.512 132.683h1.317v1.317h-1.317zM56.146 132.683h1.317v1.317h-1.317z" fill="#0f1213"/>
<path d="M82.000 80.000h1.200v1.200h-1.200zM83.200 80.000h1.200v1.200h-1.200zM84.400 80.000h1.200v1.200h-1.200zM85.600 80.000h1.200v1.200h-1.200zM86.800 80.000h1.200v1.200h-1.200zM88.000 80.000h1.200v1.200h-1.200zM89.200 80.000h1.200v1.200h-1.200zM91.600 80.000h1.200v1.200h-1.200zM95.200 80.000h1.200v1.200h-1.200zM96.400 80.000h1.200v1.200h-1.200zM97.600 80.000h1.200v1.200h-1.200zM98.800 80.000h1.200v1.200h-1.200zM101.200 80.000h1.200v1.200h-1.200zM102.400 80.000h1.200v1.200h-1.200zM103.600 80.000h1.200v1.200h-1.200zM106.000 80.000h1.200v1.200h-1.200zM108.400 80.000h1.200v1.200h-1.200zM110.800 80.000h1.200v1.200h-1.200zM112.000 80.000h1.200v1.200h-1.200zM113.200 80.000h1.200v1.200h-1.200zM114.400 80.000h1.200v1.200h-1.200zM115.600 80.000h1.200v1.200h-1.200zM116.800 80.000h1.200v1.200h-1.200zM118.000 80.000h1.200v1.200h-1.200zM119.200 80.000h1.200v1.200h-1.200zM121.600 80.000h1.200v1.200h-1.200zM125.200 80.000h1.200v1.200h-1.200zM127.600 80.000h1.200v1.200h-1.200zM128.800 80.000h1.200v1.200h-1.200zM130.000 80.000h1.200v1.200h-1.200zM131.200 80.000h1.200v1.200h-1.200zM132.400 80.000h1.200v1.200h-1.200zM133.600 80.000h1.200v1.200h-1.200zM134.800 80.000h1.200v1.200h-1.200zM82.000 81.200h1.200v1.200h-1.200zM89.200 81.200h1.200v1.200h-1.200zM91.600 81.200h1.200v1.200h-1.200zM95.200 81.200h1.200v1.200h-1.200zM100.000 81.200h1.200v1.200h-1.200zM102.400 81.200h1.200v1.200h-1.200zM103.600 81.200h1.200v1.200h-1.200zM104.800 81.200h1.200v1.200h-1.200zM108.400 81.200h1.200v1.200h-1.200zM114.400 81.200h1.200v1.200h-1.200zM119.200 81.200h1.200v1.200h-1.200zM124.000 81.200h1.200v1.200h-1.200zM127.600 81.200h1.200v1.200h-1.200zM134.800 81.200h1.200v1.200h-1.200zM82.000 82.400h1.200v1.200h-1.200zM84.400 82.400h1.200v1.200h-1.200zM85.600 82.400h1.200v1.200h-1.200zM86.800 82.400h1.200v1.200h-1.200zM89.200 82.400h1.200v1.200h-1.200zM91.600 82.400h1.200v1.200h-1.200zM92.800 82.400h1.200v1.200h-1.200zM101.200 82.400h1.200v1.200h-1.200zM103.600 82.400h1.200v1.200h-1.200zM104.800 82.400h1.200v1.200h-1.200zM107.200 82.400h1.200v1.200h-1.200zM112.000 82.400h1.200v1.200h-1.200zM114.400 82.400h1.200v1.200h-1.200zM115.600 82.400h1.200v1.200h-1.200zM118.000 82.400h1.200v1.200h-1.200zM119.200 82.400h1.200v1.200h-1.200zM121.600 82.400h1.200v1.200h-1.200zM124.000 82.400h1.200v1.200h-1.200zM127.600 82.400h1.200v1.200h-1.200zM130.000 82.400h1.200v1.200h-1.200zM131.200 82.400h1.200v1.200h-1.200zM132.400 82.400h1.200v1.200h-1.200zM134.800 82.400h1.200v1.200h-1.200zM82.000 83.600h1.200v1.200h-1.200zM84.400 83.600h1.200v1.200h-1.200zM85.600 83.600h1.200v1.200h-1.200zM86.800 83.600h1.200v1.200h-1.200zM89.200 83.600h1.200v1.200h-1.200zM94.000 83.600h1.200v1.200h-1.200zM96.400 83.600h1.200v1.200h-1.200zM102.400 83.600h1.200v1.200h-1.200zM103.600 83.600h1.200v1.200h-1.200zM104.800 83.600h1.200v1.200h-1.200zM107.200 83.600h1.200v1.200h-1.200zM110.800 83.600h1.200v1.200h-1.200zM112.000 83.600h1.200v1.200h-1.200zM115.600 83.600h1.200v1.200h-1.200zM116.800 83.600h1.200v1.200h-1.200zM118.000 83.600h1.200v1.200h-1.200zM124.000 83.600h1.200v1.200h-1.200zM125.200 83.600h1.200v1.200h-1.200zM127.600 83.600h1.200v1.200h-1.200zM130.000 83.600h1.200v1.200h-1.200zM131.200 83.600h1.200v1.200h-1.200zM132.400 83.600h1.200v1.200h-1.200zM134.800 83.600h1.200v1.200h-1.200zM82.000 84.800h1.200v1.200h-1.200zM84.400 84.800h1.200v1.200h-1.200zM85.600 84.800h1.200v1.200h-1.200zM86.800 84.800h1.200v1.200h-1.200zM89.200 84.800h1.200v1.200h-1.200zM92.800 84.800h1.200v1.200h-1.200zM94.000 84.800h1.200v1.200h-1.200zM96.400 84.800h1.200v1.200h-1.200zM104.800 84.800h1.200v1.200h-1.200zM106.000 84.800h1.200v1.200h-1.200zM107.200 84.800h1.200v1.200h-1.200zM108.400 84.800h1.200v1.200h-1.200zM109.600 84.800h1.200v1.200h-1.200zM110.800 84.800h1.200v1.200h-1.200zM112.000 84.800h1.200v1.200h-1.200zM113.200 84.800h1.200v1.200h-1.200zM114.400 84.800h1.200v1.200h-1.200zM116.800 84.800h1.200v1.200h-1.200zM118.000 84.800h1.200v1.200h-1.200zM119.200 84.800h1.200v1.200h-1.200zM122.800 84.800h1.200v1.200h-1.200zM124.000 84.800h1.200v1.200h-1.200zM125.200 84.800h1.200v1.200h-1.200zM127.600 84.800h1.200v1.200h-1.200zM130.000 84.800h1.200v1.200h-1.200zM131.200 84.800h1.200v1.200h-1.200zM132.400 84.800h1.200v1.200h-1.200zM134.800 84.800h1.200v1.200h-1.200zM82.000 86.000h1.200v1.200h-1.200zM89.200 86.000h1.200v1.200h-1.200zM91.600 86.000h1.200v1.200h-1.200zM92.800 86.000h1.200v1.200h-1.200zM95.200 86.000h1.200v1.200h-1.200zM96.400 86.000h1.200v1.200h-1.200zM97.600 86.000h1.200v1.200h-1.200zM98.800 86.000h1.200v1.200h-1.200zM100.000 86.000h1.200v1.200h-1.200zM102.400 86.000h1.200v1.200h-1.200zM106.000 86.000h1.200v1.200h-1.200zM110.800 86.000h1.200v1.200h-1.200zM112.000 86.000h1.200v1.200h-1.200zM113.200 86.000h1.200v1.200h-1.200zM115.600 86.000h1.200v1.200h-1.200zM121.600 86.000h1.200v1.200h-1.200zM127.600 86.000h1.200v1.200h-1.200zM134.800 86.000h1.200v1.200h-1.200zM82.000 87.200h1.200v1.200h-1.200zM83.200 87.200h1.200v1.200h-1.200zM84.400 87.200h1.200v1.200h-1.200zM85.600 87.200h1.200v1.200h-1.200zM86.800 87.200h1.200v1.200h-1.200zM88.000 87.200h1.200v1.200h-1.200zM89.200 87.200h1.200v1.200h-1.200zM91.600 87.200h1.200v1.200h-1.200zM94.000 87.200h1.200v1.200h-1.200zM96.400 87.200h1.200v1.200h-1.200zM98.800 87.200h1.200v1.200h-1.200zM101.200 87.200h1.200v1.200h-1.200zM103.600 87.200h1.200v1.200h-1.200zM106.000 87.200h1.200v1.200h-1.200zM108.400 87.200h1.200v1.200h-1.200zM110.800 87.200h1.200v1.200h-1.200zM113.200 87.200h1.200v1.200h-1.200zM115.600 87.200h1.200v1.200h-1.200zM118.000 87.200h1.200v1.200h-1.200zM120.400 87.200h1.200v1.200h-1.200zM122.800 87.200h1.200v1.200h-1.200zM125.200 87.200h1.200v1.200h-1.200zM127.600 87.200h1.200v1.200h-1.200zM128.800 87.200h1.200v1.200h-1.200zM130.000 87.200h1.200v1.200h-1.200zM131.200 87.200h1.200v1.200h-1.200zM132.400 87.200h1.200v1.200h-1.200zM133.600 87.200h1.200v1.200h-1.200zM134.800 87.200h1.200v1.200h-1.200zM91.600 88.400h1.200v1.200h-1.200zM94.000 88.400h1.200v1.200h-1.200zM96.400 88.400h1.200v1.200h-1.200zM102.400 88.400h1.200v1.200h-1.200zM103.600 88.400h1.200v1.200h-1.200zM106.000 88.400h1.200v1.200h-1.200zM110.800 88.400h1.200v1.200h-1.200zM112.000 88.400h1.200v1.200h-1.200zM114.400 88.400h1.200v1.200h-1.200zM115.600 88.400h1.200v1.200h-1.200zM116.800 88.400h1.200v1.200h-1.200zM120.400 88.400h1.200v1.200h-1.200zM122.800 88.400h1.200v1.200h-1.200zM84.400 89.600h1.200v1.200h-1.200zM85.600 89.600h1.200v1.200h-1.200zM86.800 89.600h1.200v1.200h-1.200zM89.200 89.600h1.200v1.200h-1.200zM91.600 89.600h1.200v1.200h-1.200zM92.800 89.600h1.200v1.200h-1.200zM95.200 89.600h1.200v1.200h-1.200zM96.400 89.600h1.200v1.200h-1.200zM100.000 89.600h1.200v1.200h-1.200zM101.200 89.600h1.200v1.200h-1.200zM103.600 89.600h1.200v1.200h-1.200zM104.800 89.600h1.200v1.200h-1.200zM106.000 89.600h1.200v1.200h-1.200zM107.200 89.600h1.200v1.200h-1.200zM108.400 89.600h1.200v1.200h-1.200zM109.600 89.600h1.200v1.200h-1.200zM110.800 89.600h1.200v1.200h-1.200zM112.000 89.600h1.200v1.200h-1.200zM114.400 89.600h1.200v1.200h-1.200zM116.800 89.600h1.200v1.200h-1.200zM119.200 89.600h1.200v1.200h-1.200zM122.800 89.600h1.200v1.200h-1.200zM126.400 89.600h1.200v1.200h-1.200zM127.600 89.600h1.200v1.200h-1.200zM128.800 89.600h1.200v1.200h-1.200zM132.400 89.600h1.200v1.200h-1.200zM133.600 89.600h1.200v1.200h-1.200zM134.800 89.600h1.200v1.200h-1.200zM84.400 90.800h1.200v1.200h-1.200zM86.800 90.800h1.200v1.200h-1.200zM88.000 90.800h1.200v1.200h-1.200zM90.400 90.800h1.200v1.200h-1.200zM91.600 90.800h1.200v1.200h-1.200zM92.800 90.800h1.200v1.200h-1.200zM95.200 90.800h1.200v1.200h-1.200zM96.400 90.800h1.200v1.200h-1.200zM97.600 90.800h1.200v1.200h-1.200zM100.000 90.800h1.200v1.200h-1.200zM103.600 90.800h1.200v1.200h-1.200zM104.800 90.800h1.200v1.200h-1.200zM106.000 90.800h1.200v1.200h-1.200zM107.200 90.800h1.200v1.200h-1.200zM110.800 90.800h1.200v1.200h-1.200zM112.000 90.800h1.200v1.200h-1.200zM114.400 90.800h1.200v1.200h-1.200zM115.600 90.800h1.200v1.200h-1.200zM116.800 90.800h1.200v1.200h-1.200zM118.000 90.800h1.200v1.200h-1.200zM119.200 90.800h1.200v1.200h-1.200zM120.400 90.800h1.200v1.200h-1.200zM121.600 90.800h1.200v1.200h-1.200zM124.000 90.800h1.200v1.200h-1.200zM125.200 90.800h1.200v1.200h-1.200zM126.400 90.800h1.200v1.200h-1.200zM130.000 90.800h1.200v1.200h-1.200zM131.200 90.800h1.200v1.200h-1.200zM134.800 90.800h1.200v1.200h-1.200zM82.000 92.000h1.200v1.200h-1.200zM83.200 92.000h1.200v1.200h-1.200zM86.800 92.000h1.200v1.200h-1.200zM89.200 92.000h1.200v1.200h-1.200zM90.400 92.000h1.200v1.200h-1.200zM91.600 92.000h1.200v1.200h-1.200zM94.000 92.000h1.200v1.200h-1.200zM96.400 92.000h1.200v1.200h-1.200zM102.400 92.000h1.200v1.200h-1.200zM103.600 92.000h1.200v1.200h-1.200zM110.800 92.000h1.200v1.200h-1.200zM114.400 92.000h1.200v1.200h-1.200zM120.400 92.000h1.200v1.200h-1.200zM121.600 92.000h1.200v1.200h-1.200zM122.800 92.000h1.200v1.200h-1.200zM124.000 92.000h1.200v1.200h-1.200zM127.600 92.000h1.200v1.200h-1.200zM128.800 92.000h1.200v1.200h-1.200zM131.200 92.000h1.200v1.200h-1.200zM133.600 92.000h1.200v1.200h-1.200zM83.200 93.200h1.200v1.200h-1.200zM84.400 93.200h1.200v1.200h-1.200zM86.800 93.200h1.200v1.200h-1.200zM92.800 93.200h1.200v1.200h-1.200zM100.000 93.200h1.200v1.200h-1.200zM101.200 93.200h1.200v1.200h-1.200zM104.800 93.200h1.200v1.200h-1.200zM106.000 93.200h1.200v1.200h-1.200zM107.200 93.200h1.200v1.200h-1.200zM109.600 93.200h1.200v1.200h-1.200zM112.000 93.200h1.200v1.200h-1.200zM113.200 93.200h1.200v1.200h-1.200zM115.600 93.200h1.200v1.200h-1.200zM120.400 93.200h1.200v1.200h-1.200zM121.600 93.200h1.200v1.200h-1.200zM125.200 93.200h1.200v1.200h-1.200zM130.000 93.200h1.200v1.200h-1.200zM131.200 93.200h1.200v1.200h-1.200zM132.400 93.200h1.200v1.200h-1.200zM133.600 93.200h1.200v1.200h-1.200zM84.400 94.400h1.200v1.200h-1.200zM85.600 94.400h1.200v1.200h-1.200zM86.800 94.400h1.200v1.200h-1.200zM89.200 94.400h1.200v1.200h-1.200zM95.200 94.400h1.200v1.200h-1.200zM96.400 94.400h1.200v1.200h-1.200zM97.600 94.400h1.200v1.200h-1.200zM100.000 94.400h1.200v1.200h-1.200zM101.200 94.400h1.200v1.200h-1.200zM104.800 94.400h1.200v1.200h-1.200zM107.200 94.400h1.200v1.200h-1.200zM109.600 94.400h1.200v1.200h-1.200zM110.800 94.400h1.200v1.200h-1.200zM113.200 94.400h1.200v1.200h-1.200zM114.400 94.400h1.200v1.200h-1.200zM115.600 94.400h1.200v1.200h-1.200zM116.800 94.400h1.200v1.200h-1.200zM118.000 94.400h1.200v1.200h-1.200zM121.600 94.400h1.200v1.200h-1.200zM122.800 94.400h1.200v1.200h-1.200zM134.800 94.400h1.200v1.200h-1.200zM84.400 95.600h1.200v1.200h-1.200zM85.600 95.600h1.200v1.200h-1.200zM86.800 95.600h1.200v1.200h-1.200zM88.000 95.600h1.200v1.200h-1.200zM90.400 95.600h1.200v1.200h-1.200zM92.800 95.600h1.200v1.200h-1.200zM94.000 95.600h1.200v1.200h-1.200zM95.200 95.600h1.200v1.200h-1.200zM97.600 95.600h1.200v1.200h-1.200zM101.200 95.600h1.200v1.200h-1.200zM102.400 95.600h1.200v1.200h-1.200zM106.000 95.600h1.200v1.200h-1.200zM108.400 95.600h1.200v1.200h-1.200zM109.600 95.600h1.200v1.200h-1.200zM110.800 95.600h1.200v1.200h-1.200zM112.000 95.600h1.200v1.200h-1.200zM116.800 95.600h1.200v1.200h-1.200zM118.000 95.600h1.200v1.200h-1.200zM119.200 95.600h1.200v1.200h-1.200zM120.400 95.600h1.200v1.200h-1.200zM124.000 95.600h1.200v1.200h-1.200zM125.200 95.600h1.200v1.200h-1.200zM126.400 95.600h1.200v1.200h-1.200zM128.800 95.600h1.200v1.200h-1.200zM134.800 95.600h1.200v1.200h-1.200zM82.000 96.800h1.200v1.200h-1.200zM88.000 96.800h1.200v1.200h-1.200zM89.200 96.800h1.200v1.200h-1.200zM90.400 96.800h1.200v1.200h-1.200zM95.200 96.800h1.200v1.200h-1.200zM97.600 96.800h1.200v1.200h-1.200zM98.800 96.800h1.200v1.200h-1.200zM100.000 96.800h1.200v1.200h-1.200zM102.400 96.800h1.200v1.200h-1.200zM104.800 96.800h1.200v1.200h-1.200zM106.000 96.800h1.200v1.200h-1.200zM108.400 96.800h1.200v1.200h-1.200zM109.600 96.800h1.200v1.200h-1.200zM112.000 96.800h1.200v1.200h-1.200zM113.200 96.800h1.200v1.200h-1.200zM114.400 96.800h1.200v1.200h-1.200zM115.600 96.800h1.200v1.200h-1.200zM119.200 96.800h1.200v1.200h-1.200zM120.400 96.800h1.200v1.200h-1.200zM121.600 96.800h1.200v1.200h-1.200zM122.800 96.800h1.200v1.200h-1.200zM124.000 96.800h1.200v1.200h-1.200zM125.200 96.800h1.200v1.200h-1.200zM126.400 96.800h1.200v1.200h-1.200zM127.600 96.800h1.200v1.200h-1.200zM128.800 96.800h1.200v1.200h-1.200zM132.400 96.800h1.200v1.200h-1.200zM83.200 98.000h1.200v1.200h-1.200zM84.400 98.000h1.200v1.200h-1.200zM86.800 98.000h1.200v1.200h-1.200zM94.000 98.000h1.200v1.200h-1.200zM96.400 98.000h1.200v1.200h-1.200zM97.600 98.000h1.200v1.200h-1.200zM101.200 98.000h1.200v1.200h-1.200zM103.600 98.000h1.200v1.200h-1.200zM106.000 98.000h1.200v1.200h-1.200zM109.600 98.000h1.200v1.200h-1.200zM110.800 98.000h1.200v1.200h-1.200zM113.200 98.000h1.200v1.200h-1.200zM114.400 98.000h1.200v1.200h-1.200zM116.800 98.000h1.200v1.200h-1.200zM120.400 98.000h1.200v1.200h-1.200zM121.600 98.000h1.200v1.200h-1.200zM124.000 98.000h1.200v1.200h-1.200zM125.200 98.000h1.200v1.200h-1.200zM127.600 98.000h1.200v1.200h-1.200zM130.000 98.000h1.200v1.200h-1.200zM131.200 98.000h1.200v1.200h-1.200zM132.400 98.000h1.200v1.200h-1.200zM133.600 98.000h1.200v1.200h-1.200zM134.800 98.000h1.200v1.200h-1.200zM83.200 99.200h1.200v1.200h-1.200zM86.800 99.200h1.200v1.200h-1.200zM89.200 99.200h1.200v1.200h-1.200zM95.200 99.200h1.200v1.200h-1.200zM104.800 99.200h1.200v1.200h-1.200zM107.200 99.200h1.200v1.200h-1.200zM109.600 99.200h1.200v1.200h-1.200zM110.800 99.200h1.200v1.200h-1.200zM112.000 99.200h1.200v1.200h-1.200zM113.200 99.200h1.200v1.200h-1.200zM119.200 99.200h1.200v1.200h-1.200zM121.600 99.200h1.200v1.200h-1.200zM122.800 99.200h1.200v1.200h-1.200zM131.200 99.200h1.200v1.200h-1.200zM134.800 99.200h1.200v1.200h-1.200zM84.400 100.400h1.200v1.200h-1.200zM85.600 100.400h1.200v1.200h-1.200zM88.000 100.400h1.200v1.200h-1.200zM91.600 100.400h1.200v1.200h-1.200zM92.800 100.400h1.200v1.200h-1.200zM96.400 100.400h1.200v1.200h-1.200zM100.000 100.400h1.200v1.200h-1.200zM103.600 100.400h1.200v1.200h-1.200zM106.000 100.400h1.200v1.200h-1.200zM107.200 100.400h1.200v1.200h-1.200zM108.400 100.400h1.200v1.200h-1.200zM109.600 100.400h1.200v1.200h-1.200zM114.400 100.400h1.200v1.200h-1.200zM116.800 100.400h1.200v1.200h-1.200zM119.200 100.400h1.200v1.200h-1.200zM121.600 100.400h1.200v1.200h-1.200zM124.000 100.400h1.200v1.200h-1.200zM125.200 100.400h1.200v1.200h-1.200zM126.400 100.400h1.200v1.200h-1.200zM132.400 100.400h1.200v1.200h-1.200zM133.600 100.400h1.200v1.200h-1.200zM134.800 100.400h1.200v1.200h-1.200zM84.400 101.600h1.200v1.200h-1.200zM86.800 101.600h1.200v1.200h-1.200zM88.000 101.600h1.200v1.200h-1.200zM89.200 101.600h1.200v1.200h-1.200zM91.600 101.600h1.200v1.200h-1.200zM94.000 101.600h1.200v1.200h-1.200zM95.200 101.600h1.200v1.200h-1.200zM96.400 101.600h1.200v1.200h-1.200zM98.800 101.600h1.200v1.200h-1.200zM102.400 101.600h1.200v1.200h-1.200zM104.800 101.600h1.200v1.200h-1.200zM106.000 101.600h1.200v1.200h-1.200zM107.200 101.600h1.200v1.200h-1.200zM109.600 101.600h1.200v1.200h-1.200zM112.000 101.600h1.200v1.200h-1.200zM113.200 101.600h1.200v1.200h-1.200zM115.600 101.600h1.200v1.200h-1.200zM118.000 101.600h1.200v1.200h-1.200zM119.200 101.600h1.200v1.200h-1.200zM120.400 101.600h1.200v1.200h-1.200zM121.600 101.600h1.200v1.200h-1.200zM122.800 101.600h1.200v1.200h-1.200zM124.000 101.600h1.200v1.200h-1.200zM125.200 101.600h1.200v1.200h-1.200zM127.600 101.600h1.200v1.200h-1.200zM128.800 101.600h1.200v1.200h-1.200zM130.000 101.600h1.200v1.200h-1.200zM133.600 101.600h1.200v1.200h-1.200zM82.000 102.800h1.200v1.200h-1.200zM84.400 102.800h1.200v1.200h-1.200zM85.600 102.800h1.200v1.200h-1.200zM88.000 102.800h1.200v1.200h-1.200zM92.800 102.800h1.200v1.200h-1.200zM95.200 102.800h1.200v1.200h-1.200zM97.600 102.800h1.200v1.200h-1.200zM98.800 102.800h1.200v1.200h-1.200zM102.400 102.800h1.200v1.200h-1.200zM106.000 102.800h1.200v1.200h-1.200zM107.200 102.800h1.200v1.200h-1.200zM108.400 102.800h1.200v1.200h-1.200zM110.800 102.800h1.200v1.200h-1.200zM112.000 102.800h1.200v1.200h-1.200zM114.400 102.800h1.200v1.200h-1.200zM115.600 102.800h1.200v1.200h-1.200zM118.000 102.800h1.200v1.200h-1.200zM120.400 102.800h1.200v1.200h-1.200zM121.600 102.800h1.200v1.200h-1.200zM122.800 102.800h1.200v1.200h-1.200zM126.400 102.800h1.200v1.200h-1.200zM128.800 102.800h1.200v1.200h-1.200zM130.000 102.800h1.200v1.200h-1.200zM131.200 102.800h1.200v1.200h-1.200zM132.400 102.800h1.200v1.200h-1.200zM133.600 102.800h1.200v1.200h-1.200zM134.800 102.800h1.200v1.200h-1.200zM83.200 104.000h1.200v1.200h-1.200zM86.800 104.000h1.200v1.200h-1.200zM88.000 104.000h1.200v1.200h-1.200zM89.200 104.000h1.200v1.200h-1.200zM90.400 104.000h1.200v1.200h-1.200zM91.600 104.000h1.200v1.200h-1.200zM92.800 104.000h1.200v1.200h-1.200zM95.200 104.000h1.200v1.200h-1.200zM97.600 104.000h1.200v1.200h-1.200zM101.200 104.000h1.200v1.200h-1.200zM103.600 104.000h1.200v1.200h-1.200zM106.000 104.000h1.200v1.200h-1.200zM107.200 104.000h1.200v1.200h-1.200zM108.400 104.000h1.200v1.200h-1.200zM109.600 104.000h1.200v1.200h-1.200zM110.800 104.000h1.200v1.200h-1.200zM114.400 104.000h1.200v1.200h-1.200zM116.800 104.000h1.200v1.200h-1.200zM118.000 104.000h1.200v1.200h-1.200zM119.200 104.000h1.200v1.200h-1.200zM121.600 104.000h1.200v1.200h-1.200zM125.200 104.000h1.200v1.200h-1.200zM126.400 104.000h1.200v1.200h-1.200zM127.600 104.000h1.200v1.200h-1.200zM128.800 104.000h1.200v1.200h-1.200zM130.000 104.000h1.200v1.200h-1.200zM131.200 104.000h1.200v1.200h-1.200zM133.600 104.000h1.200v1.200h-1.200zM134.800 104.000h1.200v1.200h-1.200zM82.000 105.200h1.200v1.200h-1.200zM85.600 105.200h1.200v1.200h-1.200zM86.800 105.200h1.200v1.200h-1.200zM91.600 105.200h1.200v1.200h-1.200zM92.800 105.200h1.200v1.200h-1.200zM94.000 105.200h1.200v1.200h-1.200zM95.200 105.200h1.200v1.200h-1.200zM97.600 105.200h1.200v1.200h-1.200zM100.000 105.200h1.200v1.200h-1.200zM102.400 105.200h1.200v1.200h-1.200zM103.600 105.200h1.200v1.200h-1.200zM104.800 105.200h1.200v1.200h-1.200zM106.000 105.200h1.200v1.200h-1.200zM110.800 105.200h1.200v1.200h-1.200zM113.200 105.200h1.200v1.200h-1.200zM114.400 105.200h1.200v1.200h-1.200zM118.000 105.200h1.200v1.200h-1.200zM120.400 105.200h1.200v1.200h-1.200zM124.000 105.200h1.200v1.200h-1.200zM125.200 105.200h1.200v1.200h-1.200zM130.000 105.200h1.200v1.200h-1.200zM131.200 105.200h1.200v1.200h-1.200zM134.800 105.200h1.200v1.200h-1.200zM85.600 106.400h1.200v1.200h-1.200zM86.800 106.400h1.200v1.200h-1.200zM89.200 106.400h1.200v1.200h-1.200zM91.600 106.400h1.200v1.200h-1.200zM94.000 106.400h1.200v1.200h-1.200zM96.400 106.400h1.200v1.200h-1.200zM97.600 106.400h1.200v1.200h-1.200zM103.600 106.400h1.200v1.200h-1.200zM104.800 106.400h1.200v1.200h-1.200zM106.000 106.400h1.200v1.200h-1.200zM108.400 106.400h1.200v1.200h-1.200zM110.800 106.400h1.200v1.200h-1.200zM112.000 106.400h1.200v1.200h-1.200zM113.200 106.400h1.200v1.200h-1.200zM115.600 106.400h1.200v1.200h-1.200zM116.800 106.400h1.200v1.200h-1.200zM118.000 106.400h1.200v1.200h-1.200zM121.600 106.400h1.200v1.200h-1.200zM122.800 106.400h1.200v1.200h-1.200zM125.200 106.400h1.200v1.200h-1.200zM127.600 106.400h1.200v1.200h-1.200zM130.000 106.400h1.200v1.200h-1.200zM133.600 106.400h1.200v1.200h-1.200zM82.000 107.600h1.200v1.200h-1.200zM85.600 107.600h1.200v1.200h-1.200zM86.800 107.600h1.200v1.200h-1.200zM91.600 107.600h1.200v1.200h-1.200zM94.000 107.600h1.200v1.200h-1.200zM95.200 107.600h1.200v1.200h-1.200zM96.400 107.600h1.200v1.200h-1.200zM97.600 107.600h1.200v1.200h-1.200zM100.000 107.600h1.200v1.200h-1.200zM101.200 107.600h1.200v1.200h-1.200zM102.400 107.600h1.200v1.200h-1.200zM103.600 107.600h1.200v1.200h-1.200zM106.000 107.600h1.200v1.200h-1.200zM110.800 107.600h1.200v1.200h-1.200zM115.600 107.600h1.200v1.200h-1.200zM116.800 107.600h1.200v1.200h-1.200zM118.000 107.600h1.200v1.200h-1.200zM121.600 107.600h1.200v1.200h-1.200zM125.200 107.600h1.200v1.200h-1.200zM130.000 107.600h1.200v1.200h-1.200zM131.200 107.600h1.200v1.200h-1.200zM132.400 107.600h1.200v1.200h-1.200zM84.400 108.800h1.200v1.200h-1.200zM86.800 108.800h1.200v1.200h-1.200zM88.000 108.800h1.200v1.200h-1.200zM89.200 108.800h1.200v1.200h-1.200zM90.400 108.800h1.200v1.200h-1.200zM91.600 108.800h1.200v1.200h-1.200zM95.200 108.800h1.200v1.200h-1.200zM96.400 108.800h1.200v1.200h-1.200zM97.600 108.800h1.200v1.200h-1.200zM102.400 108.800h1.200v1.200h-1.200zM104.800 108.800h1.200v1.200h-1.200zM106.000 108.800h1.200v1.200h-1.200zM107.200 108.800h1.200v1.200h-1.200zM108.400 108.800h1.200v1.200h-1.200zM109.600 108.800h1.200v1.200h-1.200zM110.800 108.800h1.200v1.200h-1.200zM113.200 108.800h1.200v1.200h-1.200zM114.400 108.800h1.200v1.200h-1.200zM115.600 108.800h1.200v1.200h-1.200zM116.800 108.800h1.200v1.200h-1.200zM119.200 108.800h1.200v1.200h-1.200zM120.400 108.800h1.200v1.200h-1.200zM125.200 108.800h1.200v1.200h-1.200zM126.400 108.800h1.200v1.200h-1.200zM127.600 108.800h1.200v1.200h-1.200zM128.800 108.800h1.200v1.200h-1.200zM130.000 108.800h1.200v1.200h-1.200zM133.600 108.800h1.200v1.200h-1.200zM134.800 108.800h1.200v1.200h-1.200zM82.000 110.000h1.200v1.200h-1.200zM83.200 110.000h1.200v1.200h-1.200zM84.400 110.000h1.200v1.200h-1.200zM86.800 110.000h1.200v1.200h-1.200zM90.400 110.000h1.200v1.200h-1.200zM91.600 110.000h1.200v1.200h-1.200zM92.800 110.000h1.200v1.200h-1.200zM94.000 110.000h1.200v1.200h-1.200zM95.200 110.000h1.200v1.200h-1.200zM96.400 110.000h1.200v1.200h-1.200zM97.600 110.000h1.200v1.200h-1.200zM98.800 110.000h1.200v1.200h-1.200zM101.200 110.000h1.200v1.200h-1.200zM107.200 110.000h1.200v1.200h-1.200zM109.600 110.000h1.200v1.200h-1.200zM112.000 110.000h1.200v1.200h-1.200zM114.400 110.000h1.200v1.200h-1.200zM120.400 110.000h1.200v1.200h-1.200zM121.600 110.000h1.200v1.200h-1.200zM124.000 110.000h1.200v1.200h-1.200zM125.200 110.000h1.200v1.200h-1.200zM132.400 110.000h1.200v1.200h-1.200zM134.800 110.000h1.200v1.200h-1.200zM82.000 111.200h1.200v1.200h-1.200zM85.600 111.200h1.200v1.200h-1.200zM88.000 111.200h1.200v1.200h-1.200zM89.200 111.200h1.200v1.200h-1.200zM91.600 111.200h1.200v1.200h-1.200zM92.800 111.200h1.200v1.200h-1.200zM94.000 111.200h1.200v1.200h-1.200zM96.400 111.200h1.200v1.200h-1.200zM98.800 111.200h1.200v1.200h-1.200zM101.200 111.200h1.200v1.200h-1.200zM103.600 111.200h1.200v1.200h-1.200zM104.800 111.200h1.200v1.200h-1.200zM107.200 111.200h1.200v1.200h-1.200zM108.400 111.200h1.200v1.200h-1.200zM109.600 111.200h1.200v1.200h-1.200zM110.800 111.200h1.200v1.200h-1.200zM112.000 111.200h1.200v1.200h-1.200zM113.200 111.200h1.200v1.200h-1.200zM114.400 111.200h1.200v1.200h-1.200zM118.000 111.200h1.200v1.200h-1.200zM119.200 111.200h1.200v1.200h-1.200zM120.400 111.200h1.200v1.200h-1.200zM121.600 111.200h1.200v1.200h-1.200zM122.800 111.200h1.200v1.200h-1.200zM124.000 111.200h1.200v1.200h-1.200zM125.200 111.200h1.200v1.200h-1.200zM126.400 111.200h1.200v1.200h-1.200zM130.000 111.200h1.200v1.200h-1.200zM131.200 111.200h1.200v1.200h-1.200zM132.400 111.200h1.200v1.200h-1.200zM82.000 112.400h1.200v1.200h-1.200zM83.200 112.400h1.200v1.200h-1.200zM85.600 112.400h1.200v1.200h-1.200zM86.800 112.400h1.200v1.200h-1.200zM88.000 112.400h1.200v1.200h-1.200zM91.600 112.400h1.200v1.200h-1.200zM94.000 112.400h1.200v1.200h-1.200zM96.400 112.400h1.200v1.200h-1.200zM97.600 112.400h1.200v1.200h-1.200zM98.800 112.400h1.200v1.200h-1.200zM100.000 112.400h1.200v1.200h-1.200zM101.200 112.400h1.200v1.200h-1.200zM103.600 112.400h1.200v1.200h-1.200zM104.800 112.400h1.200v1.200h-1.200zM106.000 112.400h1.200v1.200h-1.200zM107.200 112.400h1.200v1.200h-1.200zM108.400 112.400h1.200v1.200h-1.200zM110.800 112.400h1.200v1.200h-1.200zM113.200 112.400h1.200v1.200h-1.200zM114.400 112.400h1.200v1.200h-1.200zM116.800 112.400h1.200v1.200h-1.200zM120.400 112.400h1.200v1.200h-1.200zM122.800 112.400h1.200v1.200h-1.200zM124.000 112.400h1.200v1.200h-1.200zM127.600 112.400h1.200v1.200h-1.200zM128.800 112.400h1.200v1.200h-1.200zM131.200 112.400h1.200v1.200h-1.200zM132.400 112.400h1.200v1.200h-1.200zM134.800 112.400h1.200v1.200h-1.200zM82.000 113.600h1.200v1.200h-1.200zM89.200 113.600h1.200v1.200h-1.200zM90.400 113.600h1.200v1.200h-1.200zM91.600 113.600h1.200v1.200h-1.200zM92.800 113.600h1.200v1.200h-1.200zM95.200 113.600h1.200v1.200h-1.200zM97.600 113.600h1.200v1.200h-1.200zM98.800 113.600h1.200v1.200h-1.200zM103.600 113.600h1.200v1.200h-1.200zM106.000 113.600h1.200v1.200h-1.200zM110.800 113.600h1.200v1.200h-1.200zM114.400 113.600h1.200v1.200h-1.200zM115.600 113.600h1.200v1.200h-1.200zM119.200 113.600h1.200v1.200h-1.200zM122.800 113.600h1.200v1.200h-1.200zM125.200 113.600h1.200v1.200h-1.200zM130.000 113.600h1.200v1.200h-1.200zM133.600 113.600h1.200v1.200h-1.200zM134.800 113.600h1.200v1.200h-1.200zM83.200 114.800h1.200v1.200h-1.200zM84.400 114.800h1.200v1.200h-1.200zM86.800 114.800h1.200v1.200h-1.200zM88.000 114.800h1.200v1.200h-1.200zM90.400 114.800h1.200v1.200h-1.200zM92.800 114.800h1.200v1.200h-1.200zM95.200 114.800h1.200v1.200h-1.200zM96.400 114.800h1.200v1.200h-1.200zM98.800 114.800h1.200v1.200h-1.200zM100.000 114.800h1.200v1.200h-1.200zM104.800 114.800h1.200v1.200h-1.200zM107.200 114.800h1.200v1.200h-1.200zM108.400 114.800h1.200v1.200h-1.200zM109.600 114.800h1.200v1.200h-1.200zM112.000 114.800h1.200v1.200h-1.200zM113.200 114.800h1.200v1.200h-1.200zM114.400 114.800h1.200v1.200h-1.200zM115.600 114.800h1.200v1.200h-1.200zM116.800 114.800h1.200v1.200h-1.200zM119.200 114.800h1.200v1.200h-1.200zM120.400 114.800h1.200v1.200h-1.200zM126.400 114.800h1.200v1.200h-1.200zM127.600 114.800h1.200v1.200h-1.200zM132.400 114.800h1.200v1.200h-1.200zM133.600 114.800h1.200v1.200h-1.200zM134.800 114.800h1.200v1.200h-1.200zM82.000 116.000h1.200v1.200h-1.200zM84.400 116.000h1.200v1.200h-1.200zM86.800 116.000h1.200v1.200h-1.200zM88.000 116.000h1.200v1.200h-1.200zM89.200 116.000h1.200v1.200h-1.200zM90.400 116.000h1.200v1.200h-1.200zM91.600 116.000h1.200v1.200h-1.200zM95.200 116.000h1.200v1.200h-1.200zM96.400 116.000h1.200v1.200h-1.200zM98.800 116.000h1.200v1.200h-1.200zM100.000 116.000h1.200v1.200h-1.200zM102.400 116.000h1.200v1.200h-1.200zM103.600 116.000h1.200v1.200h-1.200zM109.600 116.000h1.200v1.200h-1.200zM113.200 116.000h1.200v1.200h-1.200zM115.600 116.000h1.200v1.200h-1.200zM116.800 116.000h1.200v1.200h-1.200zM121.600 116.000h1.200v1.200h-1.200zM122.800 116.000h1.200v1.200h-1.200zM124.000 116.000h1.200v1.200h-1.200zM125.200 116.000h1.200v1.200h-1.200zM128.800 116.000h1.200v1.200h-1.200zM131.200 116.000h1.200v1.200h-1.200zM133.600 116.000h1.200v1.200h-1.200zM84.400 117.200h1.200v1.200h-1.200zM85.600 117.200h1.200v1.200h-1.200zM86.800 117.200h1.200v1.200h-1.200zM88.000 117.200h1.200v1.200h-1.200zM92.800 117.200h1.200v1.200h-1.200zM94.000 117.200h1.200v1.200h-1.200zM95.200 117.200h1.200v1.200h-1.200zM96.400 117.200h1.200v1.200h-1.200zM97.600 117.200h1.200v1.200h-1.200zM100.000 117.200h1.200v1.200h-1.200zM102.400 117.200h1.200v1.200h-1.200zM108.400 117.200h1.200v1.200h-1.200zM110.800 117.200h1.200v1.200h-1.200zM113.200 117.200h1.200v1.200h-1.200zM114.400 117.200h1.200v1.200h-1.200zM115.600 117.200h1.200v1.200h-1.200zM116.800 117.200h1.200v1.200h-1.200zM118.000 117.200h1.200v1.200h-1.200zM120.400 117.200h1.200v1.200h-1.200zM124.000 117.200h1.200v1.200h-1.200zM127.600 117.200h1.200v1.200h-1.200zM131.200 117.200h1.200v1.200h-1.200zM132.400 117.200h1.200v1.200h-1.200zM133.600 117.200h1.200v1.200h-1.200zM82.000 118.400h1.200v1.200h-1.200zM88.000 118.400h1.200v1.200h-1.200zM89.200 118.400h1.200v1.200h-1.200zM91.600 118.400h1.200v1.200h-1.200zM95.200 118.400h1.200v1.200h-1.200zM96.400 118.400h1.200v1.200h-1.200zM97.600 118.400h1.200v1.200h-1.200zM98.800 118.400h1.200v1.200h-1.200zM107.200 118.400h1.200v1.200h-1.200zM112.000 118.400h1.200v1.200h-1.200zM114.400 118.400h1.200v1.200h-1.200zM116.800 118.400h1.200v1.200h-1.200zM118.000 118.400h1.200v1.200h-1.200zM119.200 118.400h1.200v1.200h-1.200zM127.600 118.400h1.200v1.200h-1.200zM128.800 118.400h1.200v1.200h-1.200zM130.000 118.400h1.200v1.200h-1.200zM133.600 118.400h1.200v1.200h-1.200zM134.800 118.400h1.200v1.200h-1.200zM82.000 119.600h1.200v1.200h-1.200zM83.200 119.600h1.200v1.200h-1.200zM84.400 119.600h1.200v1.200h-1.200zM90.400 119.600h1.200v1.200h-1.200zM91.600 119.600h1.200v1.200h-1.200zM92.800 119.600h1.200v1.200h-1.200zM94.000 119.600h1.200v1.200h-1.200zM95.200 119.600h1.200v1.200h-1.200zM96.400 119.600h1.200v1.200h-1.200zM98.800 119.600h1.200v1.200h-1.200zM100.000 119.600h1.200v1.200h-1.200zM101.200 119.600h1.200v1.200h-1.200zM102.400 119.600h1.200v1.200h-1.200zM106.000 119.600h1.200v1.200h-1.200zM112.000 119.600h1.200v1.200h-1.200zM113.200 119.600h1.200v1.200h-1.200zM114.400 119.600h1.200v1.200h-1.200zM115.600 119.600h1.200v1.200h-1.200zM118.000 119.600h1.200v1.200h-1.200zM119.200 119.600h1.200v1.200h-1.200zM126.400 119.600h1.200v1.200h-1.200zM131.200 119.600h1.200v1.200h-1.200zM132.400 119.600h1.200v1.200h-1.200zM134.800 119.600h1.200v1.200h-1.200zM86.800 120.800h1.200v1.200h-1.200zM89.200 120.800h1.200v1.200h-1.200zM90.400 120.800h1.200v1.200h-1.200zM92.800 120.800h1.200v1.200h-1.200zM94.000 120.800h1.200v1.200h-1.200zM96.400 120.800h1.200v1.200h-1.200zM98.800 120.800h1.200v1.200h-1.200zM102.400 120.800h1.200v1.200h-1.200zM103.600 120.800h1.200v1.200h-1.200zM106.000 120.800h1.200v1.200h-1.200zM108.400 120.800h1.200v1.200h-1.200zM109.600 120.800h1.200v1.200h-1.200zM112.000 120.800h1.200v1.200h-1.200zM113.200 120.800h1.200v1.200h-1.200zM118.000 120.800h1.200v1.200h-1.200zM120.400 120.800h1.200v1.200h-1.200zM122.800 120.800h1.200v1.200h-1.200zM124.000 120.800h1.200v1.200h-1.200zM126.400 120.800h1.200v1.200h-1.200zM132.400 120.800h1.200v1.200h-1.200zM133.600 120.800h1.200v1.200h-1.200zM83.200 122.000h1.200v1.200h-1.200zM84.400 122.000h1.200v1.200h-1.200zM85.600 122.000h1.200v1.200h-1.200zM86.800 122.000h1.200v1.200h-1.200zM91.600 122.000h1.200v1.200h-1.200zM97.600 122.000h1.200v1.200h-1.200zM98.800 122.000h1.200v1.200h-1.200zM100.000 122.000h1.200v1.200h-1.200zM103.600 122.000h1.200v1.200h-1.200zM106.000 122.000h1.200v1.200h-1.200zM109.600 122.000h1.200v1.200h-1.200zM112.000 122.000h1.200v1.200h-1.200zM120.400 122.000h1.200v1.200h-1.200zM122.800 122.000h1.200v1.200h-1.200zM124.000 122.000h1.200v1.200h-1.200zM127.600 122.000h1.200v1.200h-1.200zM131.200 122.000h1.200v1.200h-1.200zM132.400 122.000h1.200v1.200h-1.200zM134.800 122.000h1.200v1.200h-1.200zM82.000 123.200h1.200v1.200h-1.200zM85.600 123.200h1.200v1.200h-1.200zM86.800 123.200h1.200v1.200h-1.200zM89.200 123.200h1.200v1.200h-1.200zM90.400 123.200h1.200v1.200h-1.200zM100.000 123.200h1.200v1.200h-1.200zM101.200 123.200h1.200v1.200h-1.200zM102.400 123.200h1.200v1.200h-1.200zM106.000 123.200h1.200v1.200h-1.200zM107.200 123.200h1.200v1.200h-1.200zM108.400 123.200h1.200v1.200h-1.200zM109.600 123.200h1.200v1.200h-1.200zM110.800 123.200h1.200v1.200h-1.200zM112.000 123.200h1.200v1.200h-1.200zM115.600 123.200h1.200v1.200h-1.200zM121.600 123.200h1.200v1.200h-1.200zM122.800 123.200h1.200v1.200h-1.200zM125.200 123.200h1.200v1.200h-1.200zM126.400 123.200h1.200v1.200h-1.200zM127.600 123.200h1.200v1.200h-1.200zM128.800 123.200h1.200v1.200h-1.200zM130.000 123.200h1.200v1.200h-1.200zM131.200 123.200h1.200v1.200h-1.200zM133.600 123.200h1.200v1.200h-1.200zM91.600 124.400h1.200v1.200h-1.200zM94.000 124.400h1.200v1.200h-1.200zM95.200 124.400h1.200v1.200h-1.200zM97.600 124.400h1.200v1.200h-1.200zM101.200 124.400h1.200v1.200h-1.200zM103.600 124.400h1.200v1.200h-1.200zM106.000 124.400h1.200v1.200h-1.200zM110.800 124.400h1.200v1.200h-1.200zM112.000 124.400h1.200v1.200h-1.200zM113.200 124.400h1.200v1.200h-1.200zM114.400 124.400h1.200v1.200h-1.200zM115.600 124.400h1.200v1.200h-1.200zM116.800 124.400h1.200v1.200h-1.200zM120.400 124.400h1.200v1.200h-1.200zM125.200 124.400h1.200v1.200h-1.200zM130.000 124.400h1.200v1.200h-1.200zM132.400 124.400h1.200v1.200h-1.200zM134.800 124.400h1.200v1.200h-1.200zM82.000 125.600h1.200v1.200h-1.200zM83.200 125.600h1.200v1.200h-1.200zM84.400 125.600h1.200v1.200h-1.200zM85.600 125.600h1.200v1.200h-1.200zM86.800 125.600h1.200v1.200h-1.200zM88.000 125.600h1.200v1.200h-1.200zM89.200 125.600h1.200v1.200h-1.200zM92.800 125.600h1.200v1.200h-1.200zM95.200 125.600h1.200v1.200h-1.200zM96.400 125.600h1.200v1.200h-1.200zM106.000 125.600h1.200v1.200h-1.200zM108.400 125.600h1.200v1.200h-1.200zM110.800 125.600h1.200v1.200h-1.200zM112.000 125.600h1.200v1.200h-1.200zM113.200 125.600h1.200v1.200h-1.200zM115.600 125.600h1.200v1.200h-1.200zM118.000 125.600h1.200v1.200h-1.200zM121.600 125.600h1.200v1.200h-1.200zM122.800 125.600h1.200v1.200h-1.200zM125.200 125.600h1.200v1.200h-1.200zM127.600 125.600h1.200v1.200h-1.200zM130.000 125.600h1.200v1.200h-1.200zM131.200 125.600h1.200v1.200h-1.200zM133.600 125.600h1.200v1.200h-1.200zM82.000 126.800h1.200v1.200h-1.200zM89.200 126.800h1.200v1.200h-1.200zM92.800 126.800h1.200v1.200h-1.200zM95.200 126.800h1.200v1.200h-1.200zM100.000 126.800h1.200v1.200h-1.200zM101.200 126.800h1.200v1.200h-1.200zM103.600 126.800h1.200v1.200h-1.200zM104.800 126.800h1.200v1.200h-1.200zM106.000 126.800h1.200v1.200h-1.200zM110.800 126.800h1.200v1.200h-1.200zM112.000 126.800h1.200v1.200h-1.200zM113.200 126.800h1.200v1.200h-1.200zM119.200 126.800h1.200v1.200h-1.200zM120.400 126.800h1.200v1.200h-1.200zM125.200 126.800h1.200v1.200h-1.200zM130.000 126.800h1.200v1.200h-1.200zM131.200 126.800h1.200v1.200h-1.200zM132.400 126.800h1.200v1.200h-1.200zM133.600 126.800h1.200v1.200h-1.200zM134.800 126.800h1.200v1.200h-1.200zM82.000 128.000h1.200v1.200h-1.200zM84.400 128.000h1.200v1.200h-1.200zM85.600 128.000h1.200v1.200h-1.200zM86.800 128.000h1.200v1.200h-1.200zM89.200 128.000h1.200v1.200h-1.200zM91.600 128.000h1.200v1.200h-1.200zM94.000 128.000h1.200v1.200h-1.200zM97.600 128.000h1.200v1.200h-1.200zM98.800 128.000h1.200v1.200h-1.200zM100.000 128.000h1.200v1.200h-1.200zM101.200 128.000h1.200v1.200h-1.200zM104.800 128.000h1.200v1.200h-1.200zM106.000 128.000h1.200v1.200h-1.200zM107.200 128.000h1.200v1.200h-1.200zM108.400 128.000h1.200v1.200h-1.200zM109.600 128.000h1.200v1.200h-1.200zM110.800 128.000h1.200v1.200h-1.200zM113.200 128.000h1.200v1.200h-1.200zM114.400 128.000h1.200v1.200h-1.200zM118.000 128.000h1.200v1.200h-1.200zM119.200 128.000h1.200v1.200h-1.200zM124.000 128.000h1.200v1.200h-1.200zM125.200 128.000h1.200v1.200h-1.200zM126.400 128.000h1.200v1.200h-1.200zM127.600 128.000h1.200v1.200h-1.200zM128.800 128.000h1.200v1.200h-1.200zM130.000 128.000h1.200v1.200h-1.200zM133.600 128.000h1.200v1.200h-1.200zM82.000 129.200h1.200v1.200h-1.200zM84.400 129.200h1.200v1.200h-1.200zM85.600 129.200h1.200v1.200h-1.200zM86.800 129.200h1.200v1.200h-1.200zM89.200 129.200h1.200v1.200h-1.200zM91.600 129.200h1.200v1.200h-1.200zM92.800 129.200h1.200v1.200h-1.200zM95.200 129.200h1.200v1.200h-1.200zM98.800 129.200h1.200v1.200h-1.200zM100.000 129.200h1.200v1.200h-1.200zM102.400 129.200h1.200v1.200h-1.200zM104.800 129.200h1.200v1.200h-1.200zM106.000 129.200h1.200v1.200h-1.200zM107.200 129.200h1.200v1.200h-1.200zM108.400 129.200h1.200v1.200h-1.200zM110.800 129.200h1.200v1.200h-1.200zM113.200 129.200h1.200v1.200h-1.200zM115.600 129.200h1.200v1.200h-1.200zM116.800 129.200h1.200v1.200h-1.200zM118.000 129.200h1.200v1.200h-1.200zM119.200 129.200h1.200v1.200h-1.200zM120.400 129.200h1.200v1.200h-1.200zM130.000 129.200h1.200v1.200h-1.200zM131.200 129.200h1.200v1.200h-1.200zM132.400 129.200h1.200v1.200h-1.200zM133.600 129.200h1.200v1.200h-1.200zM134.800 129.200h1.200v1.200h-1.200zM82.000 130.400h1.200v1.200h-1.200zM84.400 130.400h1.200v1.200h-1.200zM85.600 130.400h1.200v1.200h-1.200zM86.800 130.400h1.200v1.200h-1.200zM89.200 130.400h1.200v1.200h-1.200zM91.600 130.400h1.200v1.200h-1.200zM94.000 130.400h1.200v1.200h-1.200zM98.800 130.400h1.200v1.200h-1.200zM100.000 130.400h1.200v1.200h-1.200zM102.400 130.400h1.200v1.200h-1.200zM106.000 130.400h1.200v1.200h-1.200zM108.400 130.400h1.200v1.200h-1.200zM110.800 130.400h1.200v1.200h-1.200zM112.000 130.400h1.200v1.200h-1.200zM113.200 130.400h1.200v1.200h-1.200zM114.400 130.400h1.200v1.200h-1.200zM115.600 130.400h1.200v1.200h-1.200zM116.800 130.400h1.200v1.200h-1.200zM118.000 130.400h1.200v1.200h-1.200zM119.200 130.400h1.200v1.200h-1.200zM121.600 130.400h1.200v1.200h-1.200zM122.800 130.400h1.200v1.200h-1.200zM124.000 130.400h1.200v1.200h-1.200zM125.200 130.400h1.200v1.200h-1.200zM126.400 130.400h1.200v1.200h-1.200zM127.600 130.400h1.200v1.200h-1.200zM131.200 130.400h1.200v1.200h-1.200zM82.000 131.600h1.200v1.200h-1.200zM89.200 131.600h1.200v1.200h-1.200zM92.800 131.600h1.200v1.200h-1.200zM95.200 131.600h1.200v1.200h-1.200zM96.400 131.600h1.200v1.200h-1.200zM97.600 131.600h1.200v1.200h-1.200zM102.400 131.600h1.200v1.200h-1.200zM106.000 131.600h1.200v1.200h-1.200zM107.200 131.600h1.200v1.200h-1.200zM108.400 131.600h1.200v1.200h-1.200zM109.600 131.600h1.200v1.200h-1.200zM114.400 131.600h1.200v1.200h-1.200zM115.600 131.600h1.200v1.200h-1.200zM118.000 131.600h1.200v1.200h-1.200zM122.800 131.600h1.200v1.200h-1.200zM124.000 131.600h1.200v1.200h-1.200zM125.200 131.600h1.200v1.200h-1.200zM128.800 131.600h1.200v1.200h-1.200zM131.200 131.600h1.200v1.200h-1.200zM132.400 131.600h1.200v1.200h-1.200zM82.000 132.800h1.200v1.200h-1.200zM83.200 132.800h1.200v1.200h-1.200zM84.400 132.800h1.200v1.200h-1.200zM85.600 132.800h1.200v1.200h-1.200zM86.800 132.800h1.200v1.200h-1.200zM88.000 132.800h1.200v1.200h-1.200zM89.200 132.800h1.200v1.200h-1.200zM95.200 132.800h1.200v1.200h-1.200zM96.400 132.800h1.200v1.200h-1.200zM97.600 132.800h1.200v1.200h-1.200zM101.200 132.800h1.200v1.200h-1.200zM102.400 132.800h1.200v1.200h-1.200zM114.400 132.800h1.200v1.200h-1.200zM116.800 132.800h1.200v1.200h-1.200zM118.000 132.800h1.200v1.200h-1.200zM122.800 132.800h1.200v1.200h-1.200zM124.000 132.800h1.200v1.200h-1.200zM125.200 132.800h1.200v1.200h-1.200zM126.400 132.800h1.200v1.200h-1.200zM127.600 132.800h1.200v1.200h-1.200zM130.000 132.800h1.200v1.200h-1.200zM133.600 132.800h1.200v1.200h-1.200z" fill="#0f1213"/>
<text x="41" y="145" text-anchor="middle" font-family="Arial, Helvetica, sans-serif" font-size="2.61072" fill="#aab5b1" font-style="italic">Connect to Wi-Fi</text>
<text x="109" y="145" text-anchor="middle" font-family="Arial, Helvetica, sans-serif" font-size="2.61072" fill="#aab5b1" font-style="italic">All arrival details</text>
<rect x="10" y="151" width="130" height="23" rx="2.5" fill="#1b2021"/>
<text x="45" y="158" text-anchor="middle" font-family="Arial, Helvetica, sans-serif" font-size="2.39904" fill="#aab5b1">Netz / Network</text>
<text x="105" y="158" text-anchor="middle" font-family="Arial, Helvetica, sans-serif" font-size="2.39904" fill="#aab5b1">Passwort / Password</text>
<text x="45" y="166.5" text-anchor="middle" font-family="Courier New, Courier, monospace" font-size="3.528" fill="#ffffff" font-weight="bold">TheChaletGuestNetwork</text>
<text x="105" y="166.5" text-anchor="middle" font-family="Courier New, Courier, monospace" font-size="3.528" fill="#ffffff" font-weight="bold">chaletguest</text>
<line x1="22" y1="181" x2="128" y2="181" stroke="#2a3132" stroke-width="0.4"/>
<text x="75" y="188.5" text-anchor="middle" font-family="Arial, Helvetica, sans-serif" font-size="3.03408" fill="#ffffff">Täglich 07:30 – 19:00 Uhr  ·  +43 720 502525</text>
<text x="75" y="194.5" text-anchor="middle" font-family="Arial, Helvetica, sans-serif" font-size="2.61072" fill="#aab5b1" font-style="italic">Daily 7:30 am – 7:00 pm</text>
</svg>